<mxfile host="app.diagrams.net" modified="2024-05-21T02:21:04.547Z" agent="Mozilla/5.0 (X11; Ubuntu; Linux x86_64; rv:125.0) Gecko/20100101 Firefox/125.0" etag="9UPWmvtZTlt8wC_03-bw" version="24.4.4" type="github">
  <diagram name="Page-1" id="822b0af5-4adb-64df-f703-e8dfc1f81529">
    <mxGraphModel dx="2790" dy="1770" grid="0" gridSize="58" guides="1" tooltips="1" connect="1" arrows="1" fold="1" page="0" pageScale="1" pageWidth="1100" pageHeight="850" background="#241f31" math="0" shadow="0">
      <root>
        <mxCell id="0" />
        <mxCell id="1" parent="0" />
        <mxCell id="oPhNYsJZ0r9YiffQCt__-1" value="&lt;h1 style=&quot;font-size: 30px;&quot;&gt;Pessoas&lt;br style=&quot;font-size: 30px;&quot;&gt;&lt;/h1&gt;" style="ellipse;whiteSpace=wrap;html=1;aspect=fixed;fontSize=30;fontStyle=1;labelBackgroundColor=none;fillColor=#FAE5C7;strokeColor=#0F8B8D;fontColor=#143642;" vertex="1" parent="1">
          <mxGeometry x="493" y="365" width="135" height="135" as="geometry" />
        </mxCell>
        <mxCell id="oPhNYsJZ0r9YiffQCt__-2" value="" style="endArrow=none;html=1;rounded=0;entryX=0.5;entryY=1;entryDx=0;entryDy=0;labelBackgroundColor=none;fontColor=default;strokeColor=#A8201A;" edge="1" parent="1" target="oPhNYsJZ0r9YiffQCt__-1">
          <mxGeometry width="50" height="50" relative="1" as="geometry">
            <mxPoint x="560" y="645" as="sourcePoint" />
            <mxPoint x="680" y="605" as="targetPoint" />
          </mxGeometry>
        </mxCell>
        <mxCell id="oPhNYsJZ0r9YiffQCt__-3" value="" style="endArrow=none;html=1;rounded=0;exitX=1;exitY=0.5;exitDx=0;exitDy=0;labelBackgroundColor=none;fontColor=default;strokeColor=#A8201A;" edge="1" parent="1" source="oPhNYsJZ0r9YiffQCt__-1">
          <mxGeometry width="50" height="50" relative="1" as="geometry">
            <mxPoint x="700" y="435" as="sourcePoint" />
            <mxPoint x="850" y="433" as="targetPoint" />
          </mxGeometry>
        </mxCell>
        <mxCell id="oPhNYsJZ0r9YiffQCt__-4" value="" style="endArrow=none;html=1;rounded=0;exitX=0.5;exitY=0;exitDx=0;exitDy=0;labelBackgroundColor=none;fontColor=default;strokeColor=#A8201A;" edge="1" parent="1" source="oPhNYsJZ0r9YiffQCt__-1">
          <mxGeometry width="50" height="50" relative="1" as="geometry">
            <mxPoint x="630" y="665" as="sourcePoint" />
            <mxPoint x="560" y="195" as="targetPoint" />
          </mxGeometry>
        </mxCell>
        <mxCell id="oPhNYsJZ0r9YiffQCt__-5" value="" style="endArrow=none;html=1;rounded=0;entryX=0;entryY=0.5;entryDx=0;entryDy=0;labelBackgroundColor=none;fontColor=default;strokeColor=#A8201A;" edge="1" parent="1" target="oPhNYsJZ0r9YiffQCt__-1">
          <mxGeometry width="50" height="50" relative="1" as="geometry">
            <mxPoint x="320" y="433" as="sourcePoint" />
            <mxPoint x="680" y="615" as="targetPoint" />
          </mxGeometry>
        </mxCell>
        <mxCell id="oPhNYsJZ0r9YiffQCt__-6" value="&lt;h2&gt;Pessoa&lt;br&gt;&lt;/h2&gt;" style="ellipse;whiteSpace=wrap;html=1;aspect=fixed;labelBackgroundColor=none;fillColor=#FAE5C7;strokeColor=#0F8B8D;fontColor=#143642;" vertex="1" parent="1">
          <mxGeometry x="250" y="390" width="80" height="80" as="geometry" />
        </mxCell>
        <mxCell id="oPhNYsJZ0r9YiffQCt__-7" value="" style="ellipse;whiteSpace=wrap;html=1;aspect=fixed;labelBackgroundColor=none;fillColor=#FAE5C7;strokeColor=#0F8B8D;fontColor=#143642;" vertex="1" parent="1">
          <mxGeometry x="520" y="125" width="80" height="80" as="geometry" />
        </mxCell>
        <mxCell id="oPhNYsJZ0r9YiffQCt__-8" value="" style="ellipse;whiteSpace=wrap;html=1;aspect=fixed;labelBackgroundColor=none;fillColor=#FAE5C7;strokeColor=#0F8B8D;fontColor=#143642;" vertex="1" parent="1">
          <mxGeometry x="850" y="393" width="80" height="80" as="geometry" />
        </mxCell>
        <mxCell id="oPhNYsJZ0r9YiffQCt__-9" value="" style="ellipse;whiteSpace=wrap;html=1;aspect=fixed;labelBackgroundColor=none;fillColor=#FAE5C7;strokeColor=#0F8B8D;fontColor=#143642;" vertex="1" parent="1">
          <mxGeometry x="520" y="645" width="80" height="80" as="geometry" />
        </mxCell>
        <mxCell id="oPhNYsJZ0r9YiffQCt__-10" value="&lt;h2&gt;Playlist&lt;/h2&gt;" style="ellipse;whiteSpace=wrap;html=1;aspect=fixed;labelBackgroundColor=none;fillColor=#FAE5C7;strokeColor=#0F8B8D;fontColor=#143642;" vertex="1" parent="1">
          <mxGeometry x="520.5" y="125" width="80" height="80" as="geometry" />
        </mxCell>
        <mxCell id="oPhNYsJZ0r9YiffQCt__-11" value="&lt;h2&gt;Playlist&lt;/h2&gt;" style="ellipse;whiteSpace=wrap;html=1;aspect=fixed;labelBackgroundColor=none;fillColor=#FAE5C7;strokeColor=#0F8B8D;fontColor=#143642;" vertex="1" parent="1">
          <mxGeometry x="850" y="392.5" width="80" height="80" as="geometry" />
        </mxCell>
        <mxCell id="oPhNYsJZ0r9YiffQCt__-12" value="&lt;h2&gt;Playlist&lt;/h2&gt;" style="ellipse;whiteSpace=wrap;html=1;aspect=fixed;labelBackgroundColor=none;fillColor=#FAE5C7;strokeColor=#0F8B8D;fontColor=#143642;" vertex="1" parent="1">
          <mxGeometry x="520" y="645" width="80" height="80" as="geometry" />
        </mxCell>
        <mxCell id="oPhNYsJZ0r9YiffQCt__-13" value="&lt;h2&gt;Pessoa&lt;br&gt;&lt;/h2&gt;" style="ellipse;whiteSpace=wrap;html=1;aspect=fixed;labelBackgroundColor=none;fillColor=#FAE5C7;strokeColor=#0F8B8D;fontColor=#143642;" vertex="1" parent="1">
          <mxGeometry x="520.5" y="125" width="80" height="80" as="geometry" />
        </mxCell>
        <mxCell id="oPhNYsJZ0r9YiffQCt__-14" value="&lt;h2&gt;Pessoa&lt;br&gt;&lt;/h2&gt;" style="ellipse;whiteSpace=wrap;html=1;aspect=fixed;labelBackgroundColor=none;fillColor=#FAE5C7;strokeColor=#0F8B8D;fontColor=#143642;" vertex="1" parent="1">
          <mxGeometry x="850" y="393" width="80" height="80" as="geometry" />
        </mxCell>
        <mxCell id="oPhNYsJZ0r9YiffQCt__-15" value="&lt;h2&gt;Pessoa&lt;br&gt;&lt;/h2&gt;" style="ellipse;whiteSpace=wrap;html=1;aspect=fixed;labelBackgroundColor=none;fillColor=#FAE5C7;strokeColor=#0F8B8D;fontColor=#143642;" vertex="1" parent="1">
          <mxGeometry x="520" y="645" width="80" height="80" as="geometry" />
        </mxCell>
        <mxCell id="oPhNYsJZ0r9YiffQCt__-16" value="" style="curved=1;endArrow=classic;html=1;rounded=0;exitX=1;exitY=0.5;exitDx=0;exitDy=0;entryX=1;entryY=0.5;entryDx=0;entryDy=0;labelBackgroundColor=none;fontColor=default;strokeColor=#A8201A;" edge="1" parent="1" source="oPhNYsJZ0r9YiffQCt__-15" target="oPhNYsJZ0r9YiffQCt__-13">
          <mxGeometry width="50" height="50" relative="1" as="geometry">
            <mxPoint x="620" y="665" as="sourcePoint" />
            <mxPoint x="670" y="615" as="targetPoint" />
            <Array as="points">
              <mxPoint x="670" y="665" />
              <mxPoint x="710" y="345" />
              <mxPoint x="650" y="225" />
            </Array>
          </mxGeometry>
        </mxCell>
        <mxCell id="oPhNYsJZ0r9YiffQCt__-17" value="" style="curved=1;endArrow=classic;html=1;rounded=0;exitX=0;exitY=0.5;exitDx=0;exitDy=0;entryX=0.5;entryY=1;entryDx=0;entryDy=0;labelBackgroundColor=none;fontColor=default;strokeColor=#A8201A;" edge="1" parent="1" source="oPhNYsJZ0r9YiffQCt__-15" target="oPhNYsJZ0r9YiffQCt__-6">
          <mxGeometry width="50" height="50" relative="1" as="geometry">
            <mxPoint x="620" y="665" as="sourcePoint" />
            <mxPoint x="670" y="615" as="targetPoint" />
            <Array as="points">
              <mxPoint x="440" y="655" />
              <mxPoint x="340" y="555" />
              <mxPoint x="310" y="525" />
            </Array>
          </mxGeometry>
        </mxCell>
        <mxCell id="oPhNYsJZ0r9YiffQCt__-18" value="" style="curved=1;endArrow=classic;html=1;rounded=0;exitX=0.5;exitY=1;exitDx=0;exitDy=0;entryX=0;entryY=0;entryDx=0;entryDy=0;labelBackgroundColor=none;fontColor=default;strokeColor=#A8201A;" edge="1" parent="1" source="oPhNYsJZ0r9YiffQCt__-6" target="oPhNYsJZ0r9YiffQCt__-15">
          <mxGeometry width="50" height="50" relative="1" as="geometry">
            <mxPoint x="620" y="665" as="sourcePoint" />
            <mxPoint x="670" y="615" as="targetPoint" />
            <Array as="points">
              <mxPoint x="390" y="535" />
            </Array>
          </mxGeometry>
        </mxCell>
        <mxCell id="oPhNYsJZ0r9YiffQCt__-19" value="" style="curved=1;endArrow=classic;html=1;rounded=0;exitX=0;exitY=0.5;exitDx=0;exitDy=0;entryX=0;entryY=0.5;entryDx=0;entryDy=0;labelBackgroundColor=none;fontColor=default;strokeColor=#A8201A;" edge="1" parent="1" source="oPhNYsJZ0r9YiffQCt__-7" target="oPhNYsJZ0r9YiffQCt__-15">
          <mxGeometry width="50" height="50" relative="1" as="geometry">
            <mxPoint x="620" y="665" as="sourcePoint" />
            <mxPoint x="520" y="555" as="targetPoint" />
            <Array as="points">
              <mxPoint x="410" y="495" />
              <mxPoint x="470" y="645" />
            </Array>
          </mxGeometry>
        </mxCell>
        <mxCell id="oPhNYsJZ0r9YiffQCt__-20" value="" style="curved=1;endArrow=classic;html=1;rounded=0;entryX=0;entryY=0.5;entryDx=0;entryDy=0;exitX=1;exitY=0.5;exitDx=0;exitDy=0;labelBackgroundColor=none;fontColor=default;strokeColor=#A8201A;" edge="1" parent="1" source="oPhNYsJZ0r9YiffQCt__-13" target="oPhNYsJZ0r9YiffQCt__-14">
          <mxGeometry width="50" height="50" relative="1" as="geometry">
            <mxPoint x="680" y="235" as="sourcePoint" />
            <mxPoint x="670" y="615" as="targetPoint" />
            <Array as="points">
              <mxPoint x="750" y="255" />
            </Array>
          </mxGeometry>
        </mxCell>
        <mxCell id="oPhNYsJZ0r9YiffQCt__-21" value="" style="curved=1;endArrow=classic;html=1;rounded=0;exitX=1;exitY=1;exitDx=0;exitDy=0;labelBackgroundColor=none;fontColor=default;strokeColor=#A8201A;" edge="1" parent="1" source="oPhNYsJZ0r9YiffQCt__-13">
          <mxGeometry width="50" height="50" relative="1" as="geometry">
            <mxPoint x="620" y="665" as="sourcePoint" />
            <mxPoint x="850" y="433" as="targetPoint" />
            <Array as="points">
              <mxPoint x="670" y="315" />
              <mxPoint x="750" y="385" />
            </Array>
          </mxGeometry>
        </mxCell>
        <mxCell id="oPhNYsJZ0r9YiffQCt__-30" value="&lt;div&gt;Amizades&lt;/div&gt;" style="text;html=1;align=center;verticalAlign=middle;resizable=0;points=[];autosize=1;strokeColor=none;fillColor=none;fontSize=25;rotation=45;labelBackgroundColor=default;fontColor=#143642;fontFamily=Helvetica;labelBorderColor=#FFFFFF;" vertex="1" parent="1">
          <mxGeometry x="668.75" y="297" width="128" height="42" as="geometry" />
        </mxCell>
        <mxCell id="oPhNYsJZ0r9YiffQCt__-33" value="&lt;font style=&quot;font-size: 20px;&quot;&gt;Playlists&lt;/font&gt;" style="text;html=1;align=center;verticalAlign=middle;resizable=0;points=[];autosize=1;strokeColor=none;fillColor=none;labelBackgroundColor=default;fontColor=#143642;fontFamily=Helvetica;fontSize=12;labelBorderColor=#FFFFFF;" vertex="1" parent="1">
          <mxGeometry x="510.5" y="75" width="100" height="40" as="geometry" />
        </mxCell>
        <mxCell id="oPhNYsJZ0r9YiffQCt__-35" value="" style="ellipse;whiteSpace=wrap;html=1;aspect=fixed;strokeColor=#0F8B8D;fontColor=#143642;fillColor=#FAE5C7;labelBackgroundColor=none;" vertex="1" parent="1">
          <mxGeometry x="452.25" y="29" width="36" height="36" as="geometry" />
        </mxCell>
        <mxCell id="oPhNYsJZ0r9YiffQCt__-37" value="" style="ellipse;whiteSpace=wrap;html=1;aspect=fixed;strokeColor=#0F8B8D;fontColor=#143642;fillColor=#FAE5C7;labelBackgroundColor=none;" vertex="1" parent="1">
          <mxGeometry x="512.25" y="29" width="36" height="36" as="geometry" />
        </mxCell>
        <mxCell id="oPhNYsJZ0r9YiffQCt__-40" value="" style="ellipse;whiteSpace=wrap;html=1;aspect=fixed;strokeColor=#0F8B8D;fontColor=#143642;fillColor=#FAE5C7;labelBackgroundColor=none;" vertex="1" parent="1">
          <mxGeometry x="572.25" y="29" width="36" height="36" as="geometry" />
        </mxCell>
        <mxCell id="oPhNYsJZ0r9YiffQCt__-41" value="" style="ellipse;whiteSpace=wrap;html=1;aspect=fixed;strokeColor=#0F8B8D;fontColor=#143642;fillColor=#FAE5C7;labelBackgroundColor=none;" vertex="1" parent="1">
          <mxGeometry x="632.75" y="29" width="36" height="36" as="geometry" />
        </mxCell>
        <mxCell id="oPhNYsJZ0r9YiffQCt__-44" value="" style="ellipse;whiteSpace=wrap;html=1;aspect=fixed;strokeColor=#0F8B8D;fontColor=#143642;fillColor=#FAE5C7;labelBackgroundColor=none;" vertex="1" parent="1">
          <mxGeometry x="306.5" y="-107" width="26" height="26" as="geometry" />
        </mxCell>
        <mxCell id="oPhNYsJZ0r9YiffQCt__-47" value="" style="ellipse;whiteSpace=wrap;html=1;aspect=fixed;strokeColor=#0F8B8D;fontColor=#143642;fillColor=#FAE5C7;labelBackgroundColor=none;" vertex="1" parent="1">
          <mxGeometry x="343.5" y="-107" width="26" height="26" as="geometry" />
        </mxCell>
        <mxCell id="oPhNYsJZ0r9YiffQCt__-48" value="" style="ellipse;whiteSpace=wrap;html=1;aspect=fixed;strokeColor=#0F8B8D;fontColor=#143642;fillColor=#FAE5C7;labelBackgroundColor=none;" vertex="1" parent="1">
          <mxGeometry x="306.5" y="-71" width="26" height="26" as="geometry" />
        </mxCell>
        <mxCell id="oPhNYsJZ0r9YiffQCt__-50" value="" style="ellipse;whiteSpace=wrap;html=1;aspect=fixed;strokeColor=#0F8B8D;fontColor=#143642;fillColor=#FAE5C7;labelBackgroundColor=none;" vertex="1" parent="1">
          <mxGeometry x="343.5" y="-71" width="26" height="26" as="geometry" />
        </mxCell>
        <mxCell id="oPhNYsJZ0r9YiffQCt__-51" value="" style="ellipse;whiteSpace=wrap;html=1;aspect=fixed;strokeColor=#0F8B8D;fontColor=#143642;fillColor=#FAE5C7;labelBackgroundColor=none;" vertex="1" parent="1">
          <mxGeometry x="446.5" y="-146" width="26" height="26" as="geometry" />
        </mxCell>
        <mxCell id="oPhNYsJZ0r9YiffQCt__-52" value="" style="ellipse;whiteSpace=wrap;html=1;aspect=fixed;strokeColor=#0F8B8D;fontColor=#143642;fillColor=#FAE5C7;labelBackgroundColor=none;" vertex="1" parent="1">
          <mxGeometry x="483.5" y="-146" width="26" height="26" as="geometry" />
        </mxCell>
        <mxCell id="oPhNYsJZ0r9YiffQCt__-53" value="" style="ellipse;whiteSpace=wrap;html=1;aspect=fixed;strokeColor=#0F8B8D;fontColor=#143642;fillColor=#FAE5C7;labelBackgroundColor=none;" vertex="1" parent="1">
          <mxGeometry x="446.5" y="-110" width="26" height="26" as="geometry" />
        </mxCell>
        <mxCell id="oPhNYsJZ0r9YiffQCt__-54" value="" style="ellipse;whiteSpace=wrap;html=1;aspect=fixed;strokeColor=#0F8B8D;fontColor=#143642;fillColor=#FAE5C7;labelBackgroundColor=none;" vertex="1" parent="1">
          <mxGeometry x="483.5" y="-110" width="26" height="26" as="geometry" />
        </mxCell>
        <mxCell id="oPhNYsJZ0r9YiffQCt__-55" value="" style="ellipse;whiteSpace=wrap;html=1;aspect=fixed;strokeColor=#0F8B8D;fontColor=#143642;fillColor=#FAE5C7;labelBackgroundColor=none;" vertex="1" parent="1">
          <mxGeometry x="605.75" y="-143" width="26" height="26" as="geometry" />
        </mxCell>
        <mxCell id="oPhNYsJZ0r9YiffQCt__-56" value="" style="ellipse;whiteSpace=wrap;html=1;aspect=fixed;strokeColor=#0F8B8D;fontColor=#143642;fillColor=#FAE5C7;labelBackgroundColor=none;" vertex="1" parent="1">
          <mxGeometry x="642.75" y="-143" width="26" height="26" as="geometry" />
        </mxCell>
        <mxCell id="oPhNYsJZ0r9YiffQCt__-57" value="" style="ellipse;whiteSpace=wrap;html=1;aspect=fixed;strokeColor=#0F8B8D;fontColor=#143642;fillColor=#FAE5C7;labelBackgroundColor=none;" vertex="1" parent="1">
          <mxGeometry x="605.75" y="-107" width="26" height="26" as="geometry" />
        </mxCell>
        <mxCell id="oPhNYsJZ0r9YiffQCt__-58" value="" style="ellipse;whiteSpace=wrap;html=1;aspect=fixed;strokeColor=#0F8B8D;fontColor=#143642;fillColor=#FAE5C7;labelBackgroundColor=none;" vertex="1" parent="1">
          <mxGeometry x="642.75" y="-107" width="26" height="26" as="geometry" />
        </mxCell>
        <mxCell id="oPhNYsJZ0r9YiffQCt__-59" value="" style="ellipse;whiteSpace=wrap;html=1;aspect=fixed;strokeColor=#0F8B8D;fontColor=#143642;fillColor=#FAE5C7;labelBackgroundColor=none;" vertex="1" parent="1">
          <mxGeometry x="750.5" y="-107" width="26" height="26" as="geometry" />
        </mxCell>
        <mxCell id="oPhNYsJZ0r9YiffQCt__-60" value="" style="ellipse;whiteSpace=wrap;html=1;aspect=fixed;strokeColor=#0F8B8D;fontColor=#143642;fillColor=#FAE5C7;labelBackgroundColor=none;" vertex="1" parent="1">
          <mxGeometry x="787.5" y="-107" width="26" height="26" as="geometry" />
        </mxCell>
        <mxCell id="oPhNYsJZ0r9YiffQCt__-61" value="" style="ellipse;whiteSpace=wrap;html=1;aspect=fixed;strokeColor=#0F8B8D;fontColor=#143642;fillColor=#FAE5C7;labelBackgroundColor=none;" vertex="1" parent="1">
          <mxGeometry x="750.5" y="-71" width="26" height="26" as="geometry" />
        </mxCell>
        <mxCell id="oPhNYsJZ0r9YiffQCt__-62" value="" style="ellipse;whiteSpace=wrap;html=1;aspect=fixed;strokeColor=#0F8B8D;fontColor=#143642;fillColor=#FAE5C7;labelBackgroundColor=none;" vertex="1" parent="1">
          <mxGeometry x="787.5" y="-71" width="26" height="26" as="geometry" />
        </mxCell>
        <mxCell id="oPhNYsJZ0r9YiffQCt__-64" value="" style="endArrow=classic;html=1;rounded=0;strokeColor=#A8201A;exitX=0;exitY=0;exitDx=0;exitDy=0;entryX=1;entryY=1;entryDx=0;entryDy=0;labelBackgroundColor=none;fontColor=default;" edge="1" parent="1" source="oPhNYsJZ0r9YiffQCt__-35" target="oPhNYsJZ0r9YiffQCt__-50">
          <mxGeometry width="50" height="50" relative="1" as="geometry">
            <mxPoint x="676" y="441" as="sourcePoint" />
            <mxPoint x="726" y="391" as="targetPoint" />
          </mxGeometry>
        </mxCell>
        <mxCell id="oPhNYsJZ0r9YiffQCt__-65" value="" style="endArrow=classic;html=1;rounded=0;strokeColor=#A8201A;exitX=0;exitY=0;exitDx=0;exitDy=0;entryX=1;entryY=1;entryDx=0;entryDy=0;labelBackgroundColor=none;fontColor=default;" edge="1" parent="1" source="oPhNYsJZ0r9YiffQCt__-35" target="oPhNYsJZ0r9YiffQCt__-47">
          <mxGeometry width="50" height="50" relative="1" as="geometry">
            <mxPoint x="465" y="28" as="sourcePoint" />
            <mxPoint x="515" y="-22" as="targetPoint" />
          </mxGeometry>
        </mxCell>
        <mxCell id="oPhNYsJZ0r9YiffQCt__-66" value="" style="endArrow=classic;html=1;rounded=0;strokeColor=#A8201A;exitX=0;exitY=0;exitDx=0;exitDy=0;entryX=0.5;entryY=1;entryDx=0;entryDy=0;labelBackgroundColor=none;fontColor=default;" edge="1" parent="1" source="oPhNYsJZ0r9YiffQCt__-35" target="oPhNYsJZ0r9YiffQCt__-48">
          <mxGeometry width="50" height="50" relative="1" as="geometry">
            <mxPoint x="676" y="441" as="sourcePoint" />
            <mxPoint x="726" y="391" as="targetPoint" />
          </mxGeometry>
        </mxCell>
        <mxCell id="oPhNYsJZ0r9YiffQCt__-91" value="&lt;font style=&quot;font-size: 20px;&quot;&gt;Playlists&lt;/font&gt;" style="text;html=1;align=center;verticalAlign=middle;resizable=0;points=[];autosize=1;strokeColor=none;fillColor=none;labelBackgroundColor=default;fontColor=#143642;fontFamily=Helvetica;fontSize=12;labelBorderColor=#FFFFFF;" vertex="1" parent="1">
          <mxGeometry x="-63" y="346" width="100" height="40" as="geometry" />
        </mxCell>
        <mxCell id="oPhNYsJZ0r9YiffQCt__-92" value="" style="ellipse;whiteSpace=wrap;html=1;aspect=fixed;strokeColor=#0F8B8D;fontColor=#143642;fillColor=#FAE5C7;labelBackgroundColor=none;" vertex="1" parent="1">
          <mxGeometry x="-121.25" y="300" width="36" height="36" as="geometry" />
        </mxCell>
        <mxCell id="oPhNYsJZ0r9YiffQCt__-93" value="" style="ellipse;whiteSpace=wrap;html=1;aspect=fixed;strokeColor=#0F8B8D;fontColor=#143642;fillColor=#FAE5C7;labelBackgroundColor=none;" vertex="1" parent="1">
          <mxGeometry x="-61.25" y="300" width="36" height="36" as="geometry" />
        </mxCell>
        <mxCell id="oPhNYsJZ0r9YiffQCt__-94" value="" style="ellipse;whiteSpace=wrap;html=1;aspect=fixed;strokeColor=#0F8B8D;fontColor=#143642;fillColor=#FAE5C7;labelBackgroundColor=none;" vertex="1" parent="1">
          <mxGeometry x="-1.25" y="300" width="36" height="36" as="geometry" />
        </mxCell>
        <mxCell id="oPhNYsJZ0r9YiffQCt__-95" value="" style="ellipse;whiteSpace=wrap;html=1;aspect=fixed;strokeColor=#0F8B8D;fontColor=#143642;fillColor=#FAE5C7;labelBackgroundColor=none;" vertex="1" parent="1">
          <mxGeometry x="59.25" y="300" width="36" height="36" as="geometry" />
        </mxCell>
        <mxCell id="oPhNYsJZ0r9YiffQCt__-96" value="" style="ellipse;whiteSpace=wrap;html=1;aspect=fixed;strokeColor=#0F8B8D;fontColor=#143642;fillColor=#FAE5C7;labelBackgroundColor=none;" vertex="1" parent="1">
          <mxGeometry x="-267" y="164" width="26" height="26" as="geometry" />
        </mxCell>
        <mxCell id="oPhNYsJZ0r9YiffQCt__-97" value="" style="ellipse;whiteSpace=wrap;html=1;aspect=fixed;strokeColor=#0F8B8D;fontColor=#143642;fillColor=#FAE5C7;labelBackgroundColor=none;" vertex="1" parent="1">
          <mxGeometry x="-230" y="164" width="26" height="26" as="geometry" />
        </mxCell>
        <mxCell id="oPhNYsJZ0r9YiffQCt__-98" value="" style="ellipse;whiteSpace=wrap;html=1;aspect=fixed;strokeColor=#0F8B8D;fontColor=#143642;fillColor=#FAE5C7;labelBackgroundColor=none;" vertex="1" parent="1">
          <mxGeometry x="-267" y="200" width="26" height="26" as="geometry" />
        </mxCell>
        <mxCell id="oPhNYsJZ0r9YiffQCt__-99" value="" style="ellipse;whiteSpace=wrap;html=1;aspect=fixed;strokeColor=#0F8B8D;fontColor=#143642;fillColor=#FAE5C7;labelBackgroundColor=none;" vertex="1" parent="1">
          <mxGeometry x="-230" y="200" width="26" height="26" as="geometry" />
        </mxCell>
        <mxCell id="oPhNYsJZ0r9YiffQCt__-100" value="" style="ellipse;whiteSpace=wrap;html=1;aspect=fixed;strokeColor=#0F8B8D;fontColor=#143642;fillColor=#FAE5C7;labelBackgroundColor=none;" vertex="1" parent="1">
          <mxGeometry x="-127" y="125" width="26" height="26" as="geometry" />
        </mxCell>
        <mxCell id="oPhNYsJZ0r9YiffQCt__-101" value="" style="ellipse;whiteSpace=wrap;html=1;aspect=fixed;strokeColor=#0F8B8D;fontColor=#143642;fillColor=#FAE5C7;labelBackgroundColor=none;" vertex="1" parent="1">
          <mxGeometry x="-90" y="125" width="26" height="26" as="geometry" />
        </mxCell>
        <mxCell id="oPhNYsJZ0r9YiffQCt__-102" value="" style="ellipse;whiteSpace=wrap;html=1;aspect=fixed;strokeColor=#0F8B8D;fontColor=#143642;fillColor=#FAE5C7;labelBackgroundColor=none;" vertex="1" parent="1">
          <mxGeometry x="-127" y="161" width="26" height="26" as="geometry" />
        </mxCell>
        <mxCell id="oPhNYsJZ0r9YiffQCt__-103" value="" style="ellipse;whiteSpace=wrap;html=1;aspect=fixed;strokeColor=#0F8B8D;fontColor=#143642;fillColor=#FAE5C7;labelBackgroundColor=none;" vertex="1" parent="1">
          <mxGeometry x="-90" y="161" width="26" height="26" as="geometry" />
        </mxCell>
        <mxCell id="oPhNYsJZ0r9YiffQCt__-104" value="" style="ellipse;whiteSpace=wrap;html=1;aspect=fixed;strokeColor=#0F8B8D;fontColor=#143642;fillColor=#FAE5C7;labelBackgroundColor=none;" vertex="1" parent="1">
          <mxGeometry x="32.25" y="128" width="26" height="26" as="geometry" />
        </mxCell>
        <mxCell id="oPhNYsJZ0r9YiffQCt__-105" value="" style="ellipse;whiteSpace=wrap;html=1;aspect=fixed;strokeColor=#0F8B8D;fontColor=#143642;fillColor=#FAE5C7;labelBackgroundColor=none;" vertex="1" parent="1">
          <mxGeometry x="69.25" y="128" width="26" height="26" as="geometry" />
        </mxCell>
        <mxCell id="oPhNYsJZ0r9YiffQCt__-106" value="" style="ellipse;whiteSpace=wrap;html=1;aspect=fixed;strokeColor=#0F8B8D;fontColor=#143642;fillColor=#FAE5C7;labelBackgroundColor=none;" vertex="1" parent="1">
          <mxGeometry x="32.25" y="164" width="26" height="26" as="geometry" />
        </mxCell>
        <mxCell id="oPhNYsJZ0r9YiffQCt__-107" value="" style="ellipse;whiteSpace=wrap;html=1;aspect=fixed;strokeColor=#0F8B8D;fontColor=#143642;fillColor=#FAE5C7;labelBackgroundColor=none;" vertex="1" parent="1">
          <mxGeometry x="69.25" y="164" width="26" height="26" as="geometry" />
        </mxCell>
        <mxCell id="oPhNYsJZ0r9YiffQCt__-108" value="" style="ellipse;whiteSpace=wrap;html=1;aspect=fixed;strokeColor=#0F8B8D;fontColor=#143642;fillColor=#FAE5C7;labelBackgroundColor=none;" vertex="1" parent="1">
          <mxGeometry x="177" y="164" width="26" height="26" as="geometry" />
        </mxCell>
        <mxCell id="oPhNYsJZ0r9YiffQCt__-109" value="" style="ellipse;whiteSpace=wrap;html=1;aspect=fixed;strokeColor=#0F8B8D;fontColor=#143642;fillColor=#FAE5C7;labelBackgroundColor=none;" vertex="1" parent="1">
          <mxGeometry x="214" y="164" width="26" height="26" as="geometry" />
        </mxCell>
        <mxCell id="oPhNYsJZ0r9YiffQCt__-110" value="" style="ellipse;whiteSpace=wrap;html=1;aspect=fixed;strokeColor=#0F8B8D;fontColor=#143642;fillColor=#FAE5C7;labelBackgroundColor=none;" vertex="1" parent="1">
          <mxGeometry x="177" y="200" width="26" height="26" as="geometry" />
        </mxCell>
        <mxCell id="oPhNYsJZ0r9YiffQCt__-111" value="" style="ellipse;whiteSpace=wrap;html=1;aspect=fixed;strokeColor=#0F8B8D;fontColor=#143642;fillColor=#FAE5C7;labelBackgroundColor=none;" vertex="1" parent="1">
          <mxGeometry x="214" y="200" width="26" height="26" as="geometry" />
        </mxCell>
        <mxCell id="oPhNYsJZ0r9YiffQCt__-112" value="" style="endArrow=classic;html=1;rounded=0;strokeColor=#A8201A;exitX=0;exitY=0;exitDx=0;exitDy=0;entryX=1;entryY=1;entryDx=0;entryDy=0;labelBackgroundColor=none;fontColor=default;" edge="1" source="oPhNYsJZ0r9YiffQCt__-92" target="oPhNYsJZ0r9YiffQCt__-99" parent="1">
          <mxGeometry width="50" height="50" relative="1" as="geometry">
            <mxPoint x="102.5" y="712" as="sourcePoint" />
            <mxPoint x="152.5" y="662" as="targetPoint" />
          </mxGeometry>
        </mxCell>
        <mxCell id="oPhNYsJZ0r9YiffQCt__-113" value="" style="endArrow=classic;html=1;rounded=0;exitX=0;exitY=0;exitDx=0;exitDy=0;entryX=1;entryY=1;entryDx=0;entryDy=0;strokeColor=#A8201A;labelBackgroundColor=none;fontColor=default;" edge="1" source="oPhNYsJZ0r9YiffQCt__-92" target="oPhNYsJZ0r9YiffQCt__-97" parent="1">
          <mxGeometry width="50" height="50" relative="1" as="geometry">
            <mxPoint x="-108.5" y="299" as="sourcePoint" />
            <mxPoint x="-58.5" y="249" as="targetPoint" />
          </mxGeometry>
        </mxCell>
        <mxCell id="oPhNYsJZ0r9YiffQCt__-114" value="" style="endArrow=classic;html=1;rounded=0;strokeColor=#A8201A;exitX=0;exitY=0;exitDx=0;exitDy=0;entryX=0.5;entryY=1;entryDx=0;entryDy=0;labelBackgroundColor=none;fontColor=default;" edge="1" source="oPhNYsJZ0r9YiffQCt__-92" target="oPhNYsJZ0r9YiffQCt__-98" parent="1">
          <mxGeometry width="50" height="50" relative="1" as="geometry">
            <mxPoint x="102.5" y="712" as="sourcePoint" />
            <mxPoint x="152.5" y="662" as="targetPoint" />
          </mxGeometry>
        </mxCell>
        <mxCell id="oPhNYsJZ0r9YiffQCt__-115" value="&lt;font style=&quot;font-size: 20px;&quot;&gt;Playlists&lt;/font&gt;" style="text;html=1;align=center;verticalAlign=middle;resizable=0;points=[];autosize=1;strokeColor=none;fillColor=none;labelBackgroundColor=default;fontColor=#143642;labelBorderColor=#FFFFFF;fontFamily=Helvetica;fontSize=12;" vertex="1" parent="1">
          <mxGeometry x="1213.25" y="342" width="100" height="40" as="geometry" />
        </mxCell>
        <mxCell id="oPhNYsJZ0r9YiffQCt__-116" value="" style="ellipse;whiteSpace=wrap;html=1;aspect=fixed;strokeColor=#0F8B8D;fontColor=#143642;fillColor=#FAE5C7;labelBackgroundColor=none;" vertex="1" parent="1">
          <mxGeometry x="1144" y="243" width="36" height="36" as="geometry" />
        </mxCell>
        <mxCell id="oPhNYsJZ0r9YiffQCt__-117" value="" style="ellipse;whiteSpace=wrap;html=1;aspect=fixed;strokeColor=#0F8B8D;fontColor=#143642;fillColor=#FAE5C7;labelBackgroundColor=none;" vertex="1" parent="1">
          <mxGeometry x="1204" y="243" width="36" height="36" as="geometry" />
        </mxCell>
        <mxCell id="oPhNYsJZ0r9YiffQCt__-118" value="" style="ellipse;whiteSpace=wrap;html=1;aspect=fixed;strokeColor=#0F8B8D;fontColor=#143642;fillColor=#FAE5C7;labelBackgroundColor=none;" vertex="1" parent="1">
          <mxGeometry x="1264" y="243" width="36" height="36" as="geometry" />
        </mxCell>
        <mxCell id="oPhNYsJZ0r9YiffQCt__-119" value="" style="ellipse;whiteSpace=wrap;html=1;aspect=fixed;strokeColor=#0F8B8D;fontColor=#143642;fillColor=#FAE5C7;labelBackgroundColor=none;" vertex="1" parent="1">
          <mxGeometry x="1324.5" y="243" width="36" height="36" as="geometry" />
        </mxCell>
        <mxCell id="oPhNYsJZ0r9YiffQCt__-120" value="" style="ellipse;whiteSpace=wrap;html=1;aspect=fixed;strokeColor=#0F8B8D;fontColor=#143642;fillColor=#FAE5C7;labelBackgroundColor=none;" vertex="1" parent="1">
          <mxGeometry x="987" y="133" width="26" height="26" as="geometry" />
        </mxCell>
        <mxCell id="oPhNYsJZ0r9YiffQCt__-121" value="" style="ellipse;whiteSpace=wrap;html=1;aspect=fixed;strokeColor=#0F8B8D;fontColor=#143642;fillColor=#FAE5C7;labelBackgroundColor=none;" vertex="1" parent="1">
          <mxGeometry x="1024" y="133" width="26" height="26" as="geometry" />
        </mxCell>
        <mxCell id="oPhNYsJZ0r9YiffQCt__-122" value="" style="ellipse;whiteSpace=wrap;html=1;aspect=fixed;strokeColor=#0F8B8D;fontColor=#143642;fillColor=#FAE5C7;labelBackgroundColor=none;" vertex="1" parent="1">
          <mxGeometry x="987" y="169" width="26" height="26" as="geometry" />
        </mxCell>
        <mxCell id="oPhNYsJZ0r9YiffQCt__-123" value="" style="ellipse;whiteSpace=wrap;html=1;aspect=fixed;strokeColor=#0F8B8D;fontColor=#143642;fillColor=#FAE5C7;labelBackgroundColor=none;" vertex="1" parent="1">
          <mxGeometry x="1024" y="169" width="26" height="26" as="geometry" />
        </mxCell>
        <mxCell id="oPhNYsJZ0r9YiffQCt__-124" value="" style="ellipse;whiteSpace=wrap;html=1;aspect=fixed;strokeColor=#0F8B8D;fontColor=#143642;fillColor=#FAE5C7;labelBackgroundColor=none;" vertex="1" parent="1">
          <mxGeometry x="1127" y="94" width="26" height="26" as="geometry" />
        </mxCell>
        <mxCell id="oPhNYsJZ0r9YiffQCt__-125" value="" style="ellipse;whiteSpace=wrap;html=1;aspect=fixed;strokeColor=#0F8B8D;fontColor=#143642;fillColor=#FAE5C7;labelBackgroundColor=none;" vertex="1" parent="1">
          <mxGeometry x="1164" y="94" width="26" height="26" as="geometry" />
        </mxCell>
        <mxCell id="oPhNYsJZ0r9YiffQCt__-126" value="" style="ellipse;whiteSpace=wrap;html=1;aspect=fixed;strokeColor=#0F8B8D;fontColor=#143642;fillColor=#FAE5C7;labelBackgroundColor=none;" vertex="1" parent="1">
          <mxGeometry x="1127" y="130" width="26" height="26" as="geometry" />
        </mxCell>
        <mxCell id="oPhNYsJZ0r9YiffQCt__-127" value="" style="ellipse;whiteSpace=wrap;html=1;aspect=fixed;strokeColor=#0F8B8D;fontColor=#143642;fillColor=#FAE5C7;labelBackgroundColor=none;" vertex="1" parent="1">
          <mxGeometry x="1164" y="130" width="26" height="26" as="geometry" />
        </mxCell>
        <mxCell id="oPhNYsJZ0r9YiffQCt__-128" value="" style="ellipse;whiteSpace=wrap;html=1;aspect=fixed;strokeColor=#0F8B8D;fontColor=#143642;fillColor=#FAE5C7;labelBackgroundColor=none;" vertex="1" parent="1">
          <mxGeometry x="1286.25" y="97" width="26" height="26" as="geometry" />
        </mxCell>
        <mxCell id="oPhNYsJZ0r9YiffQCt__-129" value="" style="ellipse;whiteSpace=wrap;html=1;aspect=fixed;strokeColor=#0F8B8D;fontColor=#143642;fillColor=#FAE5C7;labelBackgroundColor=none;" vertex="1" parent="1">
          <mxGeometry x="1323.25" y="97" width="26" height="26" as="geometry" />
        </mxCell>
        <mxCell id="oPhNYsJZ0r9YiffQCt__-130" value="" style="ellipse;whiteSpace=wrap;html=1;aspect=fixed;strokeColor=#0F8B8D;fontColor=#143642;fillColor=#FAE5C7;labelBackgroundColor=none;" vertex="1" parent="1">
          <mxGeometry x="1286.25" y="133" width="26" height="26" as="geometry" />
        </mxCell>
        <mxCell id="oPhNYsJZ0r9YiffQCt__-131" value="" style="ellipse;whiteSpace=wrap;html=1;aspect=fixed;strokeColor=#0F8B8D;fontColor=#143642;fillColor=#FAE5C7;labelBackgroundColor=none;" vertex="1" parent="1">
          <mxGeometry x="1323.25" y="133" width="26" height="26" as="geometry" />
        </mxCell>
        <mxCell id="oPhNYsJZ0r9YiffQCt__-132" value="" style="ellipse;whiteSpace=wrap;html=1;aspect=fixed;strokeColor=#0F8B8D;fontColor=#143642;fillColor=#FAE5C7;labelBackgroundColor=none;" vertex="1" parent="1">
          <mxGeometry x="1431" y="133" width="26" height="26" as="geometry" />
        </mxCell>
        <mxCell id="oPhNYsJZ0r9YiffQCt__-133" value="" style="ellipse;whiteSpace=wrap;html=1;aspect=fixed;strokeColor=#0F8B8D;fontColor=#143642;fillColor=#FAE5C7;labelBackgroundColor=none;" vertex="1" parent="1">
          <mxGeometry x="1468" y="133" width="26" height="26" as="geometry" />
        </mxCell>
        <mxCell id="oPhNYsJZ0r9YiffQCt__-134" value="" style="ellipse;whiteSpace=wrap;html=1;aspect=fixed;strokeColor=#0F8B8D;fontColor=#143642;fillColor=#FAE5C7;labelBackgroundColor=none;" vertex="1" parent="1">
          <mxGeometry x="1431" y="169" width="26" height="26" as="geometry" />
        </mxCell>
        <mxCell id="oPhNYsJZ0r9YiffQCt__-135" value="" style="ellipse;whiteSpace=wrap;html=1;aspect=fixed;strokeColor=#0F8B8D;fontColor=#143642;fillColor=#FAE5C7;labelBackgroundColor=none;" vertex="1" parent="1">
          <mxGeometry x="1468" y="169" width="26" height="26" as="geometry" />
        </mxCell>
        <mxCell id="oPhNYsJZ0r9YiffQCt__-136" value="" style="endArrow=classic;html=1;rounded=0;strokeColor=#A8201A;exitX=0;exitY=0;exitDx=0;exitDy=0;entryX=1;entryY=1;entryDx=0;entryDy=0;labelBackgroundColor=none;fontColor=default;" edge="1" source="oPhNYsJZ0r9YiffQCt__-116" target="oPhNYsJZ0r9YiffQCt__-123" parent="1">
          <mxGeometry width="50" height="50" relative="1" as="geometry">
            <mxPoint x="1356.5" y="681" as="sourcePoint" />
            <mxPoint x="1406.5" y="631" as="targetPoint" />
          </mxGeometry>
        </mxCell>
        <mxCell id="oPhNYsJZ0r9YiffQCt__-137" value="" style="endArrow=classic;html=1;rounded=0;strokeColor=#A8201A;exitX=0;exitY=0;exitDx=0;exitDy=0;entryX=1;entryY=1;entryDx=0;entryDy=0;labelBackgroundColor=none;fontColor=default;" edge="1" source="oPhNYsJZ0r9YiffQCt__-116" target="oPhNYsJZ0r9YiffQCt__-121" parent="1">
          <mxGeometry width="50" height="50" relative="1" as="geometry">
            <mxPoint x="1145.5" y="268" as="sourcePoint" />
            <mxPoint x="1195.5" y="218" as="targetPoint" />
          </mxGeometry>
        </mxCell>
        <mxCell id="oPhNYsJZ0r9YiffQCt__-138" value="" style="endArrow=classic;html=1;rounded=0;strokeColor=#A8201A;exitX=0;exitY=0;exitDx=0;exitDy=0;entryX=0.5;entryY=1;entryDx=0;entryDy=0;labelBackgroundColor=none;fontColor=default;" edge="1" source="oPhNYsJZ0r9YiffQCt__-116" target="oPhNYsJZ0r9YiffQCt__-122" parent="1">
          <mxGeometry width="50" height="50" relative="1" as="geometry">
            <mxPoint x="1356.5" y="681" as="sourcePoint" />
            <mxPoint x="1406.5" y="631" as="targetPoint" />
          </mxGeometry>
        </mxCell>
        <mxCell id="oPhNYsJZ0r9YiffQCt__-139" value="" style="endArrow=classic;html=1;rounded=0;strokeColor=#A8201A;exitX=1;exitY=0.5;exitDx=0;exitDy=0;entryX=0.5;entryY=1;entryDx=0;entryDy=0;labelBackgroundColor=none;fontColor=default;" edge="1" parent="1" source="oPhNYsJZ0r9YiffQCt__-14" target="oPhNYsJZ0r9YiffQCt__-119">
          <mxGeometry width="50" height="50" relative="1" as="geometry">
            <mxPoint x="630" y="400" as="sourcePoint" />
            <mxPoint x="680" y="350" as="targetPoint" />
          </mxGeometry>
        </mxCell>
        <mxCell id="oPhNYsJZ0r9YiffQCt__-140" value="" style="endArrow=classic;html=1;rounded=0;strokeColor=#A8201A;entryX=0.5;entryY=1;entryDx=0;entryDy=0;labelBackgroundColor=none;fontColor=default;" edge="1" parent="1" target="oPhNYsJZ0r9YiffQCt__-118">
          <mxGeometry width="50" height="50" relative="1" as="geometry">
            <mxPoint x="925" y="428" as="sourcePoint" />
            <mxPoint x="975" y="378" as="targetPoint" />
          </mxGeometry>
        </mxCell>
        <mxCell id="oPhNYsJZ0r9YiffQCt__-141" value="" style="endArrow=classic;html=1;rounded=0;strokeColor=#A8201A;entryX=0.5;entryY=1;entryDx=0;entryDy=0;labelBackgroundColor=none;fontColor=default;" edge="1" parent="1" target="oPhNYsJZ0r9YiffQCt__-117">
          <mxGeometry width="50" height="50" relative="1" as="geometry">
            <mxPoint x="929" y="430" as="sourcePoint" />
            <mxPoint x="979" y="380" as="targetPoint" />
          </mxGeometry>
        </mxCell>
        <mxCell id="oPhNYsJZ0r9YiffQCt__-142" value="" style="endArrow=classic;html=1;rounded=0;strokeColor=#A8201A;entryX=0.5;entryY=1;entryDx=0;entryDy=0;labelBackgroundColor=none;fontColor=default;" edge="1" parent="1" target="oPhNYsJZ0r9YiffQCt__-116">
          <mxGeometry width="50" height="50" relative="1" as="geometry">
            <mxPoint x="931" y="430" as="sourcePoint" />
            <mxPoint x="981" y="380" as="targetPoint" />
          </mxGeometry>
        </mxCell>
        <mxCell id="oPhNYsJZ0r9YiffQCt__-144" value="" style="curved=1;endArrow=classic;html=1;rounded=0;strokeColor=#A8201A;exitX=0;exitY=0;exitDx=0;exitDy=0;entryX=0;entryY=0.5;entryDx=0;entryDy=0;labelBackgroundColor=none;fontColor=default;" edge="1" parent="1" source="oPhNYsJZ0r9YiffQCt__-92" target="oPhNYsJZ0r9YiffQCt__-96">
          <mxGeometry width="50" height="50" relative="1" as="geometry">
            <mxPoint x="-279" y="337" as="sourcePoint" />
            <mxPoint x="-229" y="287" as="targetPoint" />
            <Array as="points">
              <mxPoint x="-229" y="337" />
              <mxPoint x="-309" y="239" />
            </Array>
          </mxGeometry>
        </mxCell>
        <mxCell id="oPhNYsJZ0r9YiffQCt__-145" value="" style="curved=1;endArrow=classic;html=1;rounded=0;strokeColor=#A8201A;fontColor=#143642;fillColor=#FAE5C7;exitX=0;exitY=0;exitDx=0;exitDy=0;entryX=0;entryY=0.5;entryDx=0;entryDy=0;" edge="1" parent="1" source="oPhNYsJZ0r9YiffQCt__-116" target="oPhNYsJZ0r9YiffQCt__-120">
          <mxGeometry width="50" height="50" relative="1" as="geometry">
            <mxPoint x="983" y="281" as="sourcePoint" />
            <mxPoint x="1033" y="231" as="targetPoint" />
            <Array as="points">
              <mxPoint x="1033" y="281" />
              <mxPoint x="932" y="193" />
            </Array>
          </mxGeometry>
        </mxCell>
        <mxCell id="oPhNYsJZ0r9YiffQCt__-150" value="" style="curved=1;endArrow=classic;html=1;rounded=0;strokeColor=#A8201A;fontColor=#143642;fillColor=#FAE5C7;entryX=1;entryY=1;entryDx=0;entryDy=0;" edge="1" parent="1" target="oPhNYsJZ0r9YiffQCt__-40">
          <mxGeometry width="50" height="50" relative="1" as="geometry">
            <mxPoint x="603" y="166" as="sourcePoint" />
            <mxPoint x="651" y="116" as="targetPoint" />
            <Array as="points">
              <mxPoint x="637" y="140" />
            </Array>
          </mxGeometry>
        </mxCell>
        <mxCell id="oPhNYsJZ0r9YiffQCt__-151" value="" style="curved=1;endArrow=classic;html=1;rounded=0;strokeColor=#A8201A;fontColor=#143642;fillColor=#FAE5C7;" edge="1" parent="1">
          <mxGeometry width="50" height="50" relative="1" as="geometry">
            <mxPoint x="600" y="169" as="sourcePoint" />
            <mxPoint x="662" y="59" as="targetPoint" />
            <Array as="points">
              <mxPoint x="638" y="127" />
            </Array>
          </mxGeometry>
        </mxCell>
        <mxCell id="oPhNYsJZ0r9YiffQCt__-152" value="" style="curved=1;endArrow=classic;html=1;rounded=0;strokeColor=#A8201A;fontColor=#143642;fillColor=#FAE5C7;exitX=0;exitY=0.5;exitDx=0;exitDy=0;entryX=0.5;entryY=1;entryDx=0;entryDy=0;" edge="1" parent="1" source="oPhNYsJZ0r9YiffQCt__-6" target="oPhNYsJZ0r9YiffQCt__-92">
          <mxGeometry width="50" height="50" relative="1" as="geometry">
            <mxPoint x="142" y="481" as="sourcePoint" />
            <mxPoint x="192" y="431" as="targetPoint" />
            <Array as="points">
              <mxPoint x="192" y="481" />
              <mxPoint x="-10" y="439" />
            </Array>
          </mxGeometry>
        </mxCell>
        <mxCell id="oPhNYsJZ0r9YiffQCt__-153" value="" style="endArrow=classic;html=1;rounded=0;strokeColor=#A8201A;fontColor=#143642;fillColor=#FAE5C7;exitX=0;exitY=0.5;exitDx=0;exitDy=0;entryX=0.5;entryY=1;entryDx=0;entryDy=0;" edge="1" parent="1" source="oPhNYsJZ0r9YiffQCt__-6" target="oPhNYsJZ0r9YiffQCt__-93">
          <mxGeometry width="50" height="50" relative="1" as="geometry">
            <mxPoint x="630" y="400" as="sourcePoint" />
            <mxPoint x="680" y="350" as="targetPoint" />
          </mxGeometry>
        </mxCell>
        <mxCell id="oPhNYsJZ0r9YiffQCt__-154" value="" style="endArrow=classic;html=1;rounded=0;strokeColor=#A8201A;fontColor=#143642;fillColor=#FAE5C7;exitX=0;exitY=0.5;exitDx=0;exitDy=0;entryX=0.5;entryY=1;entryDx=0;entryDy=0;" edge="1" parent="1" source="oPhNYsJZ0r9YiffQCt__-6" target="oPhNYsJZ0r9YiffQCt__-94">
          <mxGeometry width="50" height="50" relative="1" as="geometry">
            <mxPoint x="630" y="400" as="sourcePoint" />
            <mxPoint x="680" y="350" as="targetPoint" />
          </mxGeometry>
        </mxCell>
        <mxCell id="oPhNYsJZ0r9YiffQCt__-155" value="" style="endArrow=classic;html=1;rounded=0;strokeColor=#A8201A;fontColor=#143642;fillColor=#FAE5C7;exitX=0;exitY=0.5;exitDx=0;exitDy=0;entryX=1;entryY=1;entryDx=0;entryDy=0;" edge="1" parent="1" source="oPhNYsJZ0r9YiffQCt__-6" target="oPhNYsJZ0r9YiffQCt__-95">
          <mxGeometry width="50" height="50" relative="1" as="geometry">
            <mxPoint x="630" y="400" as="sourcePoint" />
            <mxPoint x="680" y="350" as="targetPoint" />
          </mxGeometry>
        </mxCell>
        <mxCell id="oPhNYsJZ0r9YiffQCt__-156" value="" style="curved=1;endArrow=classic;html=1;rounded=0;strokeColor=#A8201A;fontColor=#143642;fillColor=#FAE5C7;exitX=0;exitY=0.5;exitDx=0;exitDy=0;entryX=0;entryY=1;entryDx=0;entryDy=0;" edge="1" parent="1" source="oPhNYsJZ0r9YiffQCt__-7" target="oPhNYsJZ0r9YiffQCt__-37">
          <mxGeometry width="50" height="50" relative="1" as="geometry">
            <mxPoint x="630" y="400" as="sourcePoint" />
            <mxPoint x="405" y="135" as="targetPoint" />
            <Array as="points">
              <mxPoint x="480" y="89" />
            </Array>
          </mxGeometry>
        </mxCell>
        <mxCell id="oPhNYsJZ0r9YiffQCt__-157" value="" style="curved=1;endArrow=classic;html=1;rounded=0;strokeColor=#A8201A;fontColor=#143642;fillColor=#FAE5C7;exitX=0;exitY=0.5;exitDx=0;exitDy=0;entryX=0.5;entryY=1;entryDx=0;entryDy=0;" edge="1" parent="1" source="oPhNYsJZ0r9YiffQCt__-13" target="oPhNYsJZ0r9YiffQCt__-35">
          <mxGeometry width="50" height="50" relative="1" as="geometry">
            <mxPoint x="630" y="400" as="sourcePoint" />
            <mxPoint x="680" y="350" as="targetPoint" />
            <Array as="points">
              <mxPoint x="500" y="152" />
              <mxPoint x="460" y="97" />
            </Array>
          </mxGeometry>
        </mxCell>
        <mxCell id="oPhNYsJZ0r9YiffQCt__-158" value="" style="curved=1;endArrow=classic;html=1;rounded=0;strokeColor=#A8201A;fontColor=#143642;fillColor=#FAE5C7;exitX=0;exitY=0;exitDx=0;exitDy=0;entryX=0;entryY=0.5;entryDx=0;entryDy=0;" edge="1" parent="1" source="oPhNYsJZ0r9YiffQCt__-35" target="oPhNYsJZ0r9YiffQCt__-44">
          <mxGeometry width="50" height="50" relative="1" as="geometry">
            <mxPoint x="373" y="130" as="sourcePoint" />
            <mxPoint x="423" y="80" as="targetPoint" />
            <Array as="points">
              <mxPoint x="412" y="47" />
              <mxPoint x="327" y="19" />
              <mxPoint x="287" y="-44" />
            </Array>
          </mxGeometry>
        </mxCell>
        <mxCell id="oPhNYsJZ0r9YiffQCt__-159" value="" style="curved=1;endArrow=classic;html=1;rounded=0;strokeColor=#A8201A;fontColor=#143642;fillColor=#FAE5C7;exitX=0.5;exitY=0;exitDx=0;exitDy=0;entryX=0;entryY=0.5;entryDx=0;entryDy=0;" edge="1" parent="1" source="oPhNYsJZ0r9YiffQCt__-93" target="oPhNYsJZ0r9YiffQCt__-100">
          <mxGeometry width="50" height="50" relative="1" as="geometry">
            <mxPoint x="-45" y="298" as="sourcePoint" />
            <mxPoint x="5" y="248" as="targetPoint" />
            <Array as="points">
              <mxPoint x="-118" y="267" />
              <mxPoint x="-186" y="209" />
            </Array>
          </mxGeometry>
        </mxCell>
        <mxCell id="oPhNYsJZ0r9YiffQCt__-160" value="" style="endArrow=classic;html=1;rounded=0;strokeColor=#A8201A;fontColor=#143642;fillColor=#FAE5C7;entryX=0.5;entryY=1;entryDx=0;entryDy=0;exitX=0.5;exitY=0;exitDx=0;exitDy=0;" edge="1" parent="1" source="oPhNYsJZ0r9YiffQCt__-93" target="oPhNYsJZ0r9YiffQCt__-102">
          <mxGeometry width="50" height="50" relative="1" as="geometry">
            <mxPoint x="-45" y="301" as="sourcePoint" />
            <mxPoint x="5" y="251" as="targetPoint" />
          </mxGeometry>
        </mxCell>
        <mxCell id="oPhNYsJZ0r9YiffQCt__-161" value="" style="endArrow=classic;html=1;rounded=0;strokeColor=#A8201A;fontColor=#143642;fillColor=#FAE5C7;entryX=0.5;entryY=1;entryDx=0;entryDy=0;" edge="1" parent="1" target="oPhNYsJZ0r9YiffQCt__-103">
          <mxGeometry width="50" height="50" relative="1" as="geometry">
            <mxPoint x="-46" y="300" as="sourcePoint" />
            <mxPoint x="8.25" y="226" as="targetPoint" />
          </mxGeometry>
        </mxCell>
        <mxCell id="oPhNYsJZ0r9YiffQCt__-162" value="" style="curved=1;endArrow=classic;html=1;rounded=0;strokeColor=#A8201A;fontColor=#143642;fillColor=#FAE5C7;exitX=0.5;exitY=0;exitDx=0;exitDy=0;entryX=1;entryY=0.5;entryDx=0;entryDy=0;" edge="1" parent="1" source="oPhNYsJZ0r9YiffQCt__-93" target="oPhNYsJZ0r9YiffQCt__-101">
          <mxGeometry width="50" height="50" relative="1" as="geometry">
            <mxPoint x="-55" y="267" as="sourcePoint" />
            <mxPoint x="-5" y="217" as="targetPoint" />
            <Array as="points">
              <mxPoint x="-32" y="225" />
              <mxPoint x="-40" y="172" />
            </Array>
          </mxGeometry>
        </mxCell>
        <mxCell id="oPhNYsJZ0r9YiffQCt__-163" value="" style="ellipse;whiteSpace=wrap;html=1;aspect=fixed;strokeColor=#0F8B8D;fontColor=#143642;fillColor=#FAE5C7;labelBackgroundColor=none;" vertex="1" parent="1">
          <mxGeometry x="451.75" y="785" width="36" height="36" as="geometry" />
        </mxCell>
        <mxCell id="oPhNYsJZ0r9YiffQCt__-164" value="" style="ellipse;whiteSpace=wrap;html=1;aspect=fixed;strokeColor=#0F8B8D;fontColor=#143642;fillColor=#FAE5C7;labelBackgroundColor=none;" vertex="1" parent="1">
          <mxGeometry x="511.75" y="785" width="36" height="36" as="geometry" />
        </mxCell>
        <mxCell id="oPhNYsJZ0r9YiffQCt__-165" value="" style="ellipse;whiteSpace=wrap;html=1;aspect=fixed;strokeColor=#0F8B8D;fontColor=#143642;fillColor=#FAE5C7;labelBackgroundColor=none;" vertex="1" parent="1">
          <mxGeometry x="571.75" y="785" width="36" height="36" as="geometry" />
        </mxCell>
        <mxCell id="oPhNYsJZ0r9YiffQCt__-166" value="" style="ellipse;whiteSpace=wrap;html=1;aspect=fixed;strokeColor=#0F8B8D;fontColor=#143642;fillColor=#FAE5C7;labelBackgroundColor=none;" vertex="1" parent="1">
          <mxGeometry x="632.25" y="785" width="36" height="36" as="geometry" />
        </mxCell>
        <mxCell id="oPhNYsJZ0r9YiffQCt__-167" value="&lt;div&gt;Amizades&lt;/div&gt;" style="text;html=1;align=center;verticalAlign=middle;resizable=0;points=[];autosize=1;strokeColor=none;fillColor=none;fontSize=25;rotation=45;labelBackgroundColor=default;fontColor=#143642;fontFamily=Helvetica;labelBorderColor=#FFFFFF;" vertex="1" parent="1">
          <mxGeometry x="348.00407640085655" y="569.0040764008564" width="128" height="42" as="geometry" />
        </mxCell>
        <mxCell id="oPhNYsJZ0r9YiffQCt__-168" value="" style="curved=1;endArrow=classic;html=1;rounded=0;strokeColor=#A8201A;fontColor=#143642;fillColor=#FAE5C7;exitX=0;exitY=0;exitDx=0;exitDy=0;entryX=0;entryY=0.5;entryDx=0;entryDy=0;" edge="1" parent="1" source="oPhNYsJZ0r9YiffQCt__-94" target="oPhNYsJZ0r9YiffQCt__-104">
          <mxGeometry width="50" height="50" relative="1" as="geometry">
            <mxPoint x="630" y="400" as="sourcePoint" />
            <mxPoint x="680" y="350" as="targetPoint" />
            <Array as="points">
              <mxPoint x="-16" y="233" />
              <mxPoint y="162" />
            </Array>
          </mxGeometry>
        </mxCell>
        <mxCell id="oPhNYsJZ0r9YiffQCt__-169" value="" style="endArrow=classic;html=1;rounded=0;strokeColor=#A8201A;fontColor=#143642;fillColor=#FAE5C7;exitX=0;exitY=0;exitDx=0;exitDy=0;entryX=0;entryY=1;entryDx=0;entryDy=0;" edge="1" parent="1" source="oPhNYsJZ0r9YiffQCt__-94" target="oPhNYsJZ0r9YiffQCt__-106">
          <mxGeometry width="50" height="50" relative="1" as="geometry">
            <mxPoint x="18" y="294" as="sourcePoint" />
            <mxPoint x="68" y="244" as="targetPoint" />
          </mxGeometry>
        </mxCell>
        <mxCell id="oPhNYsJZ0r9YiffQCt__-170" value="" style="endArrow=classic;html=1;rounded=0;strokeColor=#A8201A;fontColor=#143642;fillColor=#FAE5C7;exitX=0;exitY=0;exitDx=0;exitDy=0;entryX=0.5;entryY=1;entryDx=0;entryDy=0;" edge="1" parent="1" source="oPhNYsJZ0r9YiffQCt__-94" target="oPhNYsJZ0r9YiffQCt__-107">
          <mxGeometry width="50" height="50" relative="1" as="geometry">
            <mxPoint x="35" y="283" as="sourcePoint" />
            <mxPoint x="85" y="233" as="targetPoint" />
          </mxGeometry>
        </mxCell>
        <mxCell id="oPhNYsJZ0r9YiffQCt__-171" value="" style="curved=1;endArrow=classic;html=1;rounded=0;strokeColor=#A8201A;fontColor=#143642;fillColor=#FAE5C7;exitX=0;exitY=0;exitDx=0;exitDy=0;entryX=1;entryY=0.5;entryDx=0;entryDy=0;" edge="1" parent="1" source="oPhNYsJZ0r9YiffQCt__-94" target="oPhNYsJZ0r9YiffQCt__-105">
          <mxGeometry width="50" height="50" relative="1" as="geometry">
            <mxPoint x="48" y="288" as="sourcePoint" />
            <mxPoint x="98" y="238" as="targetPoint" />
            <Array as="points">
              <mxPoint x="78" y="253" />
              <mxPoint x="110" y="193" />
            </Array>
          </mxGeometry>
        </mxCell>
        <mxCell id="oPhNYsJZ0r9YiffQCt__-172" value="" style="endArrow=classic;html=1;rounded=0;strokeColor=#A8201A;fontColor=#143642;fillColor=#FAE5C7;exitX=1;exitY=0;exitDx=0;exitDy=0;entryX=0;entryY=0.5;entryDx=0;entryDy=0;" edge="1" parent="1" source="oPhNYsJZ0r9YiffQCt__-95" target="oPhNYsJZ0r9YiffQCt__-108">
          <mxGeometry width="50" height="50" relative="1" as="geometry">
            <mxPoint x="630" y="400" as="sourcePoint" />
            <mxPoint x="680" y="350" as="targetPoint" />
          </mxGeometry>
        </mxCell>
        <mxCell id="oPhNYsJZ0r9YiffQCt__-173" value="" style="endArrow=classic;html=1;rounded=0;strokeColor=#A8201A;fontColor=#143642;fillColor=#FAE5C7;exitX=1;exitY=0;exitDx=0;exitDy=0;entryX=0;entryY=1;entryDx=0;entryDy=0;" edge="1" parent="1" source="oPhNYsJZ0r9YiffQCt__-95" target="oPhNYsJZ0r9YiffQCt__-110">
          <mxGeometry width="50" height="50" relative="1" as="geometry">
            <mxPoint x="136" y="314" as="sourcePoint" />
            <mxPoint x="186" y="264" as="targetPoint" />
          </mxGeometry>
        </mxCell>
        <mxCell id="oPhNYsJZ0r9YiffQCt__-174" value="" style="endArrow=classic;html=1;rounded=0;strokeColor=#A8201A;fontColor=#143642;fillColor=#FAE5C7;exitX=1;exitY=0;exitDx=0;exitDy=0;entryX=0;entryY=1;entryDx=0;entryDy=0;" edge="1" parent="1" source="oPhNYsJZ0r9YiffQCt__-95" target="oPhNYsJZ0r9YiffQCt__-111">
          <mxGeometry width="50" height="50" relative="1" as="geometry">
            <mxPoint x="135" y="313" as="sourcePoint" />
            <mxPoint x="185" y="263" as="targetPoint" />
          </mxGeometry>
        </mxCell>
        <mxCell id="oPhNYsJZ0r9YiffQCt__-175" value="" style="curved=1;endArrow=classic;html=1;rounded=0;strokeColor=#A8201A;fontColor=#143642;fillColor=#FAE5C7;exitX=1;exitY=0;exitDx=0;exitDy=0;entryX=1;entryY=0.5;entryDx=0;entryDy=0;" edge="1" parent="1" source="oPhNYsJZ0r9YiffQCt__-95" target="oPhNYsJZ0r9YiffQCt__-109">
          <mxGeometry width="50" height="50" relative="1" as="geometry">
            <mxPoint x="162" y="321" as="sourcePoint" />
            <mxPoint x="212" y="271" as="targetPoint" />
            <Array as="points">
              <mxPoint x="204" y="283" />
              <mxPoint x="261" y="222" />
            </Array>
          </mxGeometry>
        </mxCell>
        <mxCell id="oPhNYsJZ0r9YiffQCt__-176" value="" style="endArrow=classic;html=1;rounded=0;strokeColor=#A8201A;fontColor=#143642;fillColor=#FAE5C7;exitX=0.5;exitY=1;exitDx=0;exitDy=0;entryX=0.5;entryY=0;entryDx=0;entryDy=0;" edge="1" parent="1" source="oPhNYsJZ0r9YiffQCt__-15" target="oPhNYsJZ0r9YiffQCt__-163">
          <mxGeometry width="50" height="50" relative="1" as="geometry">
            <mxPoint x="630" y="400" as="sourcePoint" />
            <mxPoint x="680" y="350" as="targetPoint" />
          </mxGeometry>
        </mxCell>
        <mxCell id="oPhNYsJZ0r9YiffQCt__-177" value="" style="endArrow=classic;html=1;rounded=0;strokeColor=#A8201A;fontColor=#143642;fillColor=#FAE5C7;exitX=0.5;exitY=1;exitDx=0;exitDy=0;entryX=0.5;entryY=0;entryDx=0;entryDy=0;" edge="1" parent="1" source="oPhNYsJZ0r9YiffQCt__-15" target="oPhNYsJZ0r9YiffQCt__-164">
          <mxGeometry width="50" height="50" relative="1" as="geometry">
            <mxPoint x="715" y="711" as="sourcePoint" />
            <mxPoint x="765" y="661" as="targetPoint" />
          </mxGeometry>
        </mxCell>
        <mxCell id="oPhNYsJZ0r9YiffQCt__-178" value="" style="endArrow=classic;html=1;rounded=0;strokeColor=#A8201A;fontColor=#143642;fillColor=#FAE5C7;exitX=0.5;exitY=1;exitDx=0;exitDy=0;entryX=0.5;entryY=0;entryDx=0;entryDy=0;" edge="1" parent="1" source="oPhNYsJZ0r9YiffQCt__-15" target="oPhNYsJZ0r9YiffQCt__-165">
          <mxGeometry width="50" height="50" relative="1" as="geometry">
            <mxPoint x="612" y="758" as="sourcePoint" />
            <mxPoint x="662" y="708" as="targetPoint" />
          </mxGeometry>
        </mxCell>
        <mxCell id="oPhNYsJZ0r9YiffQCt__-179" value="" style="endArrow=classic;html=1;rounded=0;strokeColor=#A8201A;fontColor=#143642;fillColor=#FAE5C7;exitX=0.5;exitY=1;exitDx=0;exitDy=0;entryX=0.5;entryY=0;entryDx=0;entryDy=0;" edge="1" parent="1" source="oPhNYsJZ0r9YiffQCt__-15" target="oPhNYsJZ0r9YiffQCt__-166">
          <mxGeometry width="50" height="50" relative="1" as="geometry">
            <mxPoint x="662" y="744" as="sourcePoint" />
            <mxPoint x="712" y="694" as="targetPoint" />
          </mxGeometry>
        </mxCell>
        <mxCell id="oPhNYsJZ0r9YiffQCt__-31" value="&lt;font style=&quot;font-size: 20px;&quot;&gt;Playlists&lt;/font&gt;" style="text;html=1;align=center;verticalAlign=middle;resizable=0;points=[];autosize=1;strokeColor=none;fillColor=none;labelBackgroundColor=default;fontColor=#143642;fontFamily=Helvetica;fontSize=12;labelBorderColor=#FFFFFF;" vertex="1" parent="1">
          <mxGeometry x="510" y="739" width="100" height="40" as="geometry" />
        </mxCell>
        <mxCell id="oPhNYsJZ0r9YiffQCt__-180" value="" style="curved=1;endArrow=classic;html=1;rounded=0;strokeColor=#A8201A;fontColor=#143642;fillColor=#FAE5C7;entryX=1;entryY=0.5;entryDx=0;entryDy=0;" edge="1" parent="1" target="oPhNYsJZ0r9YiffQCt__-52">
          <mxGeometry width="50" height="50" relative="1" as="geometry">
            <mxPoint x="532" y="26" as="sourcePoint" />
            <mxPoint x="582" y="-24" as="targetPoint" />
            <Array as="points">
              <mxPoint x="548" y="-44" />
            </Array>
          </mxGeometry>
        </mxCell>
        <mxCell id="oPhNYsJZ0r9YiffQCt__-181" value="" style="curved=1;endArrow=classic;html=1;rounded=0;strokeColor=#A8201A;fontColor=#143642;fillColor=#FAE5C7;exitX=0.5;exitY=0;exitDx=0;exitDy=0;entryX=1;entryY=1;entryDx=0;entryDy=0;" edge="1" parent="1" source="oPhNYsJZ0r9YiffQCt__-37" target="oPhNYsJZ0r9YiffQCt__-54">
          <mxGeometry width="50" height="50" relative="1" as="geometry">
            <mxPoint x="519" y="10" as="sourcePoint" />
            <mxPoint x="569" y="-40" as="targetPoint" />
            <Array as="points">
              <mxPoint x="519" y="-40" />
            </Array>
          </mxGeometry>
        </mxCell>
        <mxCell id="oPhNYsJZ0r9YiffQCt__-182" value="" style="curved=1;endArrow=classic;html=1;rounded=0;strokeColor=#A8201A;fontColor=#143642;fillColor=#FAE5C7;exitX=0.5;exitY=0;exitDx=0;exitDy=0;entryX=0;entryY=0.5;entryDx=0;entryDy=0;" edge="1" parent="1" source="oPhNYsJZ0r9YiffQCt__-37" target="oPhNYsJZ0r9YiffQCt__-51">
          <mxGeometry width="50" height="50" relative="1" as="geometry">
            <mxPoint x="485" y="7" as="sourcePoint" />
            <mxPoint x="535" y="-43" as="targetPoint" />
            <Array as="points">
              <mxPoint x="437" y="-37" />
              <mxPoint x="422" y="-111" />
            </Array>
          </mxGeometry>
        </mxCell>
        <mxCell id="oPhNYsJZ0r9YiffQCt__-183" value="" style="endArrow=classic;html=1;rounded=0;strokeColor=#A8201A;fontColor=#143642;fillColor=#FAE5C7;entryX=0.5;entryY=1;entryDx=0;entryDy=0;" edge="1" parent="1" target="oPhNYsJZ0r9YiffQCt__-53">
          <mxGeometry width="50" height="50" relative="1" as="geometry">
            <mxPoint x="522" y="26" as="sourcePoint" />
            <mxPoint x="572" y="-20" as="targetPoint" />
          </mxGeometry>
        </mxCell>
        <mxCell id="oPhNYsJZ0r9YiffQCt__-184" value="" style="curved=1;endArrow=classic;html=1;rounded=0;strokeColor=#A8201A;fontColor=#143642;fillColor=#FAE5C7;entryX=1;entryY=0.5;entryDx=0;entryDy=0;" edge="1" parent="1" target="oPhNYsJZ0r9YiffQCt__-56">
          <mxGeometry width="50" height="50" relative="1" as="geometry">
            <mxPoint x="595" y="27" as="sourcePoint" />
            <mxPoint x="645" y="-23" as="targetPoint" />
            <Array as="points">
              <mxPoint x="656" y="-13" />
              <mxPoint x="691" y="-77" />
            </Array>
          </mxGeometry>
        </mxCell>
        <mxCell id="oPhNYsJZ0r9YiffQCt__-185" value="" style="endArrow=classic;html=1;rounded=0;strokeColor=#A8201A;fontColor=#143642;fillColor=#FAE5C7;entryX=0.5;entryY=1;entryDx=0;entryDy=0;exitX=0.5;exitY=0;exitDx=0;exitDy=0;" edge="1" parent="1" source="oPhNYsJZ0r9YiffQCt__-40" target="oPhNYsJZ0r9YiffQCt__-58">
          <mxGeometry width="50" height="50" relative="1" as="geometry">
            <mxPoint x="587" y="26" as="sourcePoint" />
            <mxPoint x="630" y="-61" as="targetPoint" />
          </mxGeometry>
        </mxCell>
        <mxCell id="oPhNYsJZ0r9YiffQCt__-186" value="" style="curved=1;endArrow=classic;html=1;rounded=0;strokeColor=#A8201A;fontColor=#143642;fillColor=#FAE5C7;exitX=0.5;exitY=0;exitDx=0;exitDy=0;entryX=0;entryY=0.5;entryDx=0;entryDy=0;" edge="1" parent="1" source="oPhNYsJZ0r9YiffQCt__-40" target="oPhNYsJZ0r9YiffQCt__-55">
          <mxGeometry width="50" height="50" relative="1" as="geometry">
            <mxPoint x="553" y="-13" as="sourcePoint" />
            <mxPoint x="603" y="-63" as="targetPoint" />
            <Array as="points">
              <mxPoint x="571" y="-37" />
              <mxPoint x="567" y="-101" />
            </Array>
          </mxGeometry>
        </mxCell>
        <mxCell id="oPhNYsJZ0r9YiffQCt__-187" value="" style="endArrow=classic;html=1;rounded=0;strokeColor=#A8201A;fontColor=#143642;fillColor=#FAE5C7;exitX=0.5;exitY=0;exitDx=0;exitDy=0;entryX=0.5;entryY=1;entryDx=0;entryDy=0;" edge="1" parent="1" source="oPhNYsJZ0r9YiffQCt__-40" target="oPhNYsJZ0r9YiffQCt__-57">
          <mxGeometry width="50" height="50" relative="1" as="geometry">
            <mxPoint x="709" y="23" as="sourcePoint" />
            <mxPoint x="759" y="-27" as="targetPoint" />
          </mxGeometry>
        </mxCell>
        <mxCell id="oPhNYsJZ0r9YiffQCt__-188" value="" style="curved=1;endArrow=classic;html=1;rounded=0;strokeColor=#A8201A;fontColor=#143642;fillColor=#FAE5C7;exitX=1;exitY=0.5;exitDx=0;exitDy=0;entryX=1;entryY=0.5;entryDx=0;entryDy=0;" edge="1" parent="1" source="oPhNYsJZ0r9YiffQCt__-41" target="oPhNYsJZ0r9YiffQCt__-60">
          <mxGeometry width="50" height="50" relative="1" as="geometry">
            <mxPoint x="686" y="53" as="sourcePoint" />
            <mxPoint x="736" y="3" as="targetPoint" />
            <Array as="points">
              <mxPoint x="736" y="53" />
              <mxPoint x="854" y="-4" />
            </Array>
          </mxGeometry>
        </mxCell>
        <mxCell id="oPhNYsJZ0r9YiffQCt__-189" value="" style="endArrow=classic;html=1;rounded=0;strokeColor=#A8201A;fontColor=#143642;fillColor=#FAE5C7;exitX=1;exitY=0;exitDx=0;exitDy=0;entryX=0;entryY=0.5;entryDx=0;entryDy=0;" edge="1" parent="1" source="oPhNYsJZ0r9YiffQCt__-41" target="oPhNYsJZ0r9YiffQCt__-59">
          <mxGeometry width="50" height="50" relative="1" as="geometry">
            <mxPoint x="648" y="21" as="sourcePoint" />
            <mxPoint x="698" y="-29" as="targetPoint" />
          </mxGeometry>
        </mxCell>
        <mxCell id="oPhNYsJZ0r9YiffQCt__-190" value="" style="endArrow=classic;html=1;rounded=0;strokeColor=#A8201A;fontColor=#143642;fillColor=#FAE5C7;exitX=1;exitY=0;exitDx=0;exitDy=0;entryX=0.5;entryY=1;entryDx=0;entryDy=0;" edge="1" parent="1" source="oPhNYsJZ0r9YiffQCt__-41" target="oPhNYsJZ0r9YiffQCt__-62">
          <mxGeometry width="50" height="50" relative="1" as="geometry">
            <mxPoint x="692" y="41" as="sourcePoint" />
            <mxPoint x="742" y="-9" as="targetPoint" />
          </mxGeometry>
        </mxCell>
        <mxCell id="oPhNYsJZ0r9YiffQCt__-191" value="" style="endArrow=classic;html=1;rounded=0;strokeColor=#A8201A;fontColor=#143642;fillColor=#FAE5C7;exitX=1;exitY=0.5;exitDx=0;exitDy=0;entryX=0;entryY=1;entryDx=0;entryDy=0;" edge="1" parent="1" source="oPhNYsJZ0r9YiffQCt__-41" target="oPhNYsJZ0r9YiffQCt__-61">
          <mxGeometry width="50" height="50" relative="1" as="geometry">
            <mxPoint x="742" y="43" as="sourcePoint" />
            <mxPoint x="792" y="-7" as="targetPoint" />
          </mxGeometry>
        </mxCell>
        <mxCell id="oPhNYsJZ0r9YiffQCt__-192" value="" style="curved=1;endArrow=classic;html=1;rounded=0;strokeColor=#A8201A;fontColor=#143642;fillColor=#FAE5C7;exitX=0;exitY=0.5;exitDx=0;exitDy=0;entryX=0;entryY=0.5;entryDx=0;entryDy=0;" edge="1" parent="1" source="oPhNYsJZ0r9YiffQCt__-117" target="oPhNYsJZ0r9YiffQCt__-124">
          <mxGeometry width="50" height="50" relative="1" as="geometry">
            <mxPoint x="1193" y="193" as="sourcePoint" />
            <mxPoint x="1243" y="143" as="targetPoint" />
            <Array as="points">
              <mxPoint x="1135" y="203" />
              <mxPoint x="1087" y="122" />
            </Array>
          </mxGeometry>
        </mxCell>
        <mxCell id="oPhNYsJZ0r9YiffQCt__-193" value="" style="curved=1;endArrow=classic;html=1;rounded=0;strokeColor=#A8201A;fontColor=#143642;fillColor=#FAE5C7;exitX=0.5;exitY=0;exitDx=0;exitDy=0;entryX=1;entryY=0.5;entryDx=0;entryDy=0;" edge="1" parent="1" source="oPhNYsJZ0r9YiffQCt__-117" target="oPhNYsJZ0r9YiffQCt__-125">
          <mxGeometry width="50" height="50" relative="1" as="geometry">
            <mxPoint x="1155" y="211" as="sourcePoint" />
            <mxPoint x="1205" y="161" as="targetPoint" />
            <Array as="points">
              <mxPoint x="1211" y="161" />
            </Array>
          </mxGeometry>
        </mxCell>
        <mxCell id="oPhNYsJZ0r9YiffQCt__-194" value="" style="endArrow=classic;html=1;rounded=0;strokeColor=#A8201A;fontColor=#143642;fillColor=#FAE5C7;exitX=0;exitY=0;exitDx=0;exitDy=0;entryX=0.5;entryY=1;entryDx=0;entryDy=0;" edge="1" parent="1" source="oPhNYsJZ0r9YiffQCt__-117" target="oPhNYsJZ0r9YiffQCt__-126">
          <mxGeometry width="50" height="50" relative="1" as="geometry">
            <mxPoint x="1166" y="230" as="sourcePoint" />
            <mxPoint x="1216" y="180" as="targetPoint" />
          </mxGeometry>
        </mxCell>
        <mxCell id="oPhNYsJZ0r9YiffQCt__-195" value="" style="endArrow=classic;html=1;rounded=0;strokeColor=#A8201A;fontColor=#143642;fillColor=#FAE5C7;entryX=0.5;entryY=1;entryDx=0;entryDy=0;exitX=0;exitY=0;exitDx=0;exitDy=0;" edge="1" parent="1" source="oPhNYsJZ0r9YiffQCt__-117" target="oPhNYsJZ0r9YiffQCt__-127">
          <mxGeometry width="50" height="50" relative="1" as="geometry">
            <mxPoint x="1202" y="246" as="sourcePoint" />
            <mxPoint x="1252" y="196" as="targetPoint" />
          </mxGeometry>
        </mxCell>
        <mxCell id="oPhNYsJZ0r9YiffQCt__-196" value="" style="curved=1;endArrow=classic;html=1;rounded=0;strokeColor=#A8201A;fontColor=#143642;fillColor=#FAE5C7;exitX=0;exitY=0;exitDx=0;exitDy=0;" edge="1" parent="1" source="oPhNYsJZ0r9YiffQCt__-118">
          <mxGeometry width="50" height="50" relative="1" as="geometry">
            <mxPoint x="1235" y="160" as="sourcePoint" />
            <mxPoint x="1285" y="110" as="targetPoint" />
            <Array as="points">
              <mxPoint x="1242" y="137" />
            </Array>
          </mxGeometry>
        </mxCell>
        <mxCell id="oPhNYsJZ0r9YiffQCt__-197" value="" style="curved=1;endArrow=classic;html=1;rounded=0;strokeColor=#A8201A;fontColor=#143642;fillColor=#FAE5C7;exitX=0.5;exitY=0;exitDx=0;exitDy=0;entryX=1;entryY=0.5;entryDx=0;entryDy=0;" edge="1" parent="1" source="oPhNYsJZ0r9YiffQCt__-118" target="oPhNYsJZ0r9YiffQCt__-129">
          <mxGeometry width="50" height="50" relative="1" as="geometry">
            <mxPoint x="1283" y="243" as="sourcePoint" />
            <mxPoint x="1333" y="193" as="targetPoint" />
            <Array as="points">
              <mxPoint x="1328" y="217" />
              <mxPoint x="1380" y="149" />
            </Array>
          </mxGeometry>
        </mxCell>
        <mxCell id="oPhNYsJZ0r9YiffQCt__-198" value="" style="endArrow=classic;html=1;rounded=0;strokeColor=#A8201A;fontColor=#143642;fillColor=#FAE5C7;exitX=0.5;exitY=0;exitDx=0;exitDy=0;entryX=0;entryY=1;entryDx=0;entryDy=0;" edge="1" parent="1" source="oPhNYsJZ0r9YiffQCt__-118" target="oPhNYsJZ0r9YiffQCt__-130">
          <mxGeometry width="50" height="50" relative="1" as="geometry">
            <mxPoint x="630" y="400" as="sourcePoint" />
            <mxPoint x="680" y="350" as="targetPoint" />
          </mxGeometry>
        </mxCell>
        <mxCell id="oPhNYsJZ0r9YiffQCt__-199" value="" style="endArrow=classic;html=1;rounded=0;strokeColor=#A8201A;fontColor=#143642;fillColor=#FAE5C7;entryX=0.5;entryY=1;entryDx=0;entryDy=0;exitX=0.5;exitY=0;exitDx=0;exitDy=0;" edge="1" parent="1" source="oPhNYsJZ0r9YiffQCt__-118" target="oPhNYsJZ0r9YiffQCt__-131">
          <mxGeometry width="50" height="50" relative="1" as="geometry">
            <mxPoint x="1272" y="231" as="sourcePoint" />
            <mxPoint x="1322" y="181" as="targetPoint" />
          </mxGeometry>
        </mxCell>
        <mxCell id="oPhNYsJZ0r9YiffQCt__-200" value="" style="curved=1;endArrow=classic;html=1;rounded=0;strokeColor=#A8201A;fontColor=#143642;fillColor=#FAE5C7;exitX=1;exitY=1;exitDx=0;exitDy=0;entryX=1;entryY=0.5;entryDx=0;entryDy=0;" edge="1" parent="1" source="oPhNYsJZ0r9YiffQCt__-119" target="oPhNYsJZ0r9YiffQCt__-133">
          <mxGeometry width="50" height="50" relative="1" as="geometry">
            <mxPoint x="1359" y="253" as="sourcePoint" />
            <mxPoint x="1409" y="203" as="targetPoint" />
            <Array as="points">
              <mxPoint x="1508" y="261" />
              <mxPoint x="1541" y="185" />
            </Array>
          </mxGeometry>
        </mxCell>
        <mxCell id="oPhNYsJZ0r9YiffQCt__-201" value="" style="endArrow=classic;html=1;rounded=0;strokeColor=#A8201A;fontColor=#143642;fillColor=#FAE5C7;exitX=0.5;exitY=0;exitDx=0;exitDy=0;entryX=0;entryY=0.5;entryDx=0;entryDy=0;" edge="1" parent="1" source="oPhNYsJZ0r9YiffQCt__-119" target="oPhNYsJZ0r9YiffQCt__-132">
          <mxGeometry width="50" height="50" relative="1" as="geometry">
            <mxPoint x="1346" y="218" as="sourcePoint" />
            <mxPoint x="1396" y="168" as="targetPoint" />
          </mxGeometry>
        </mxCell>
        <mxCell id="oPhNYsJZ0r9YiffQCt__-202" value="" style="endArrow=classic;html=1;rounded=0;strokeColor=#A8201A;fontColor=#143642;fillColor=#FAE5C7;exitX=1;exitY=0;exitDx=0;exitDy=0;entryX=0;entryY=1;entryDx=0;entryDy=0;" edge="1" parent="1" source="oPhNYsJZ0r9YiffQCt__-119" target="oPhNYsJZ0r9YiffQCt__-134">
          <mxGeometry width="50" height="50" relative="1" as="geometry">
            <mxPoint x="1366" y="253" as="sourcePoint" />
            <mxPoint x="1416" y="203" as="targetPoint" />
          </mxGeometry>
        </mxCell>
        <mxCell id="oPhNYsJZ0r9YiffQCt__-203" value="" style="endArrow=classic;html=1;rounded=0;strokeColor=#A8201A;fontColor=#143642;fillColor=#FAE5C7;exitX=1;exitY=0.5;exitDx=0;exitDy=0;entryX=0;entryY=1;entryDx=0;entryDy=0;" edge="1" parent="1" source="oPhNYsJZ0r9YiffQCt__-119" target="oPhNYsJZ0r9YiffQCt__-135">
          <mxGeometry width="50" height="50" relative="1" as="geometry">
            <mxPoint x="1381" y="258" as="sourcePoint" />
            <mxPoint x="1431" y="208" as="targetPoint" />
          </mxGeometry>
        </mxCell>
        <mxCell id="oPhNYsJZ0r9YiffQCt__-204" value="&lt;font style=&quot;font-size: 18px;&quot;&gt;MUSICAS&lt;/font&gt;" style="text;html=1;align=center;verticalAlign=middle;resizable=0;points=[];autosize=1;strokeColor=none;fillColor=none;fontColor=#143642;fontFamily=Helvetica;fontSize=12;labelBorderColor=#FFFFFF;labelBackgroundColor=default;" vertex="1" parent="1">
          <mxGeometry x="508.25" y="-204" width="100" height="34" as="geometry" />
        </mxCell>
        <mxCell id="oPhNYsJZ0r9YiffQCt__-207" value="&lt;font style=&quot;font-size: 18px;&quot;&gt;MUSICAS&lt;/font&gt;" style="text;html=1;align=center;verticalAlign=middle;resizable=0;points=[];autosize=1;strokeColor=none;fillColor=none;fontColor=#143642;fontFamily=Helvetica;fontSize=12;labelBorderColor=#FFFFFF;labelBackgroundColor=default;" vertex="1" parent="1">
          <mxGeometry x="-63" y="75" width="100" height="34" as="geometry" />
        </mxCell>
        <mxCell id="oPhNYsJZ0r9YiffQCt__-209" value="&lt;font style=&quot;font-size: 18px;&quot;&gt;MUSICAS&lt;/font&gt;" style="text;html=1;align=center;verticalAlign=middle;resizable=0;points=[];autosize=1;strokeColor=none;fillColor=none;fontColor=#143642;fontFamily=Helvetica;fontSize=12;labelBorderColor=#FFFFFF;labelBackgroundColor=default;" vertex="1" parent="1">
          <mxGeometry x="1196" y="53" width="100" height="34" as="geometry" />
        </mxCell>
        <mxCell id="oPhNYsJZ0r9YiffQCt__-210" value="" style="ellipse;whiteSpace=wrap;html=1;aspect=fixed;strokeColor=#0F8B8D;fontColor=#143642;fillColor=#FAE5C7;labelBackgroundColor=none;" vertex="1" parent="1">
          <mxGeometry x="307" y="918" width="26" height="26" as="geometry" />
        </mxCell>
        <mxCell id="oPhNYsJZ0r9YiffQCt__-211" value="" style="ellipse;whiteSpace=wrap;html=1;aspect=fixed;strokeColor=#0F8B8D;fontColor=#143642;fillColor=#FAE5C7;labelBackgroundColor=none;" vertex="1" parent="1">
          <mxGeometry x="344" y="918" width="26" height="26" as="geometry" />
        </mxCell>
        <mxCell id="oPhNYsJZ0r9YiffQCt__-212" value="" style="ellipse;whiteSpace=wrap;html=1;aspect=fixed;strokeColor=#0F8B8D;fontColor=#143642;fillColor=#FAE5C7;labelBackgroundColor=none;" vertex="1" parent="1">
          <mxGeometry x="307" y="954" width="26" height="26" as="geometry" />
        </mxCell>
        <mxCell id="oPhNYsJZ0r9YiffQCt__-213" value="" style="ellipse;whiteSpace=wrap;html=1;aspect=fixed;strokeColor=#0F8B8D;fontColor=#143642;fillColor=#FAE5C7;labelBackgroundColor=none;" vertex="1" parent="1">
          <mxGeometry x="344" y="954" width="26" height="26" as="geometry" />
        </mxCell>
        <mxCell id="oPhNYsJZ0r9YiffQCt__-214" value="" style="ellipse;whiteSpace=wrap;html=1;aspect=fixed;strokeColor=#0F8B8D;fontColor=#143642;fillColor=#FAE5C7;labelBackgroundColor=none;" vertex="1" parent="1">
          <mxGeometry x="447" y="879" width="26" height="26" as="geometry" />
        </mxCell>
        <mxCell id="oPhNYsJZ0r9YiffQCt__-215" value="" style="ellipse;whiteSpace=wrap;html=1;aspect=fixed;strokeColor=#0F8B8D;fontColor=#143642;fillColor=#FAE5C7;labelBackgroundColor=none;" vertex="1" parent="1">
          <mxGeometry x="484" y="879" width="26" height="26" as="geometry" />
        </mxCell>
        <mxCell id="oPhNYsJZ0r9YiffQCt__-216" value="" style="ellipse;whiteSpace=wrap;html=1;aspect=fixed;strokeColor=#0F8B8D;fontColor=#143642;fillColor=#FAE5C7;labelBackgroundColor=none;" vertex="1" parent="1">
          <mxGeometry x="447" y="915" width="26" height="26" as="geometry" />
        </mxCell>
        <mxCell id="oPhNYsJZ0r9YiffQCt__-217" value="" style="ellipse;whiteSpace=wrap;html=1;aspect=fixed;strokeColor=#0F8B8D;fontColor=#143642;fillColor=#FAE5C7;labelBackgroundColor=none;" vertex="1" parent="1">
          <mxGeometry x="484" y="915" width="26" height="26" as="geometry" />
        </mxCell>
        <mxCell id="oPhNYsJZ0r9YiffQCt__-218" value="" style="ellipse;whiteSpace=wrap;html=1;aspect=fixed;strokeColor=#0F8B8D;fontColor=#143642;fillColor=#FAE5C7;labelBackgroundColor=none;" vertex="1" parent="1">
          <mxGeometry x="606.25" y="882" width="26" height="26" as="geometry" />
        </mxCell>
        <mxCell id="oPhNYsJZ0r9YiffQCt__-219" value="" style="ellipse;whiteSpace=wrap;html=1;aspect=fixed;strokeColor=#0F8B8D;fontColor=#143642;fillColor=#FAE5C7;labelBackgroundColor=none;" vertex="1" parent="1">
          <mxGeometry x="643.25" y="882" width="26" height="26" as="geometry" />
        </mxCell>
        <mxCell id="oPhNYsJZ0r9YiffQCt__-220" value="" style="ellipse;whiteSpace=wrap;html=1;aspect=fixed;strokeColor=#0F8B8D;fontColor=#143642;fillColor=#FAE5C7;labelBackgroundColor=none;" vertex="1" parent="1">
          <mxGeometry x="606.25" y="918" width="26" height="26" as="geometry" />
        </mxCell>
        <mxCell id="oPhNYsJZ0r9YiffQCt__-221" value="" style="ellipse;whiteSpace=wrap;html=1;aspect=fixed;strokeColor=#0F8B8D;fontColor=#143642;fillColor=#FAE5C7;labelBackgroundColor=none;" vertex="1" parent="1">
          <mxGeometry x="643.25" y="918" width="26" height="26" as="geometry" />
        </mxCell>
        <mxCell id="oPhNYsJZ0r9YiffQCt__-222" value="" style="ellipse;whiteSpace=wrap;html=1;aspect=fixed;strokeColor=#0F8B8D;fontColor=#143642;fillColor=#FAE5C7;labelBackgroundColor=none;" vertex="1" parent="1">
          <mxGeometry x="751" y="918" width="26" height="26" as="geometry" />
        </mxCell>
        <mxCell id="oPhNYsJZ0r9YiffQCt__-223" value="" style="ellipse;whiteSpace=wrap;html=1;aspect=fixed;strokeColor=#0F8B8D;fontColor=#143642;fillColor=#FAE5C7;labelBackgroundColor=none;" vertex="1" parent="1">
          <mxGeometry x="788" y="918" width="26" height="26" as="geometry" />
        </mxCell>
        <mxCell id="oPhNYsJZ0r9YiffQCt__-224" value="" style="ellipse;whiteSpace=wrap;html=1;aspect=fixed;strokeColor=#0F8B8D;fontColor=#143642;fillColor=#FAE5C7;labelBackgroundColor=none;" vertex="1" parent="1">
          <mxGeometry x="751" y="954" width="26" height="26" as="geometry" />
        </mxCell>
        <mxCell id="oPhNYsJZ0r9YiffQCt__-225" value="" style="ellipse;whiteSpace=wrap;html=1;aspect=fixed;strokeColor=#0F8B8D;fontColor=#143642;fillColor=#FAE5C7;labelBackgroundColor=none;" vertex="1" parent="1">
          <mxGeometry x="788" y="954" width="26" height="26" as="geometry" />
        </mxCell>
        <mxCell id="oPhNYsJZ0r9YiffQCt__-226" value="&lt;font style=&quot;font-size: 18px;&quot;&gt;MUSICAS&lt;/font&gt;" style="text;html=1;align=center;verticalAlign=middle;resizable=0;points=[];autosize=1;strokeColor=none;fillColor=none;fontColor=#143642;fontFamily=Helvetica;fontSize=12;labelBorderColor=#FFFFFF;labelBackgroundColor=default;" vertex="1" parent="1">
          <mxGeometry x="510.5" y="978" width="100" height="34" as="geometry" />
        </mxCell>
        <mxCell id="oPhNYsJZ0r9YiffQCt__-227" value="" style="curved=1;endArrow=classic;html=1;rounded=0;strokeColor=#A8201A;fontColor=#143642;fillColor=#FAE5C7;exitX=0.5;exitY=1;exitDx=0;exitDy=0;entryX=1;entryY=0;entryDx=0;entryDy=0;" edge="1" parent="1" source="oPhNYsJZ0r9YiffQCt__-164" target="oPhNYsJZ0r9YiffQCt__-217">
          <mxGeometry width="50" height="50" relative="1" as="geometry">
            <mxPoint x="354" y="831" as="sourcePoint" />
            <mxPoint x="506" y="937" as="targetPoint" />
            <Array as="points">
              <mxPoint x="540" y="873" />
              <mxPoint x="530" y="905" />
            </Array>
          </mxGeometry>
        </mxCell>
        <mxCell id="oPhNYsJZ0r9YiffQCt__-228" value="" style="curved=1;endArrow=classic;html=1;rounded=0;strokeColor=#A8201A;fontColor=#143642;fillColor=#FAE5C7;exitX=0;exitY=0.5;exitDx=0;exitDy=0;entryX=0;entryY=0;entryDx=0;entryDy=0;" edge="1" parent="1" source="oPhNYsJZ0r9YiffQCt__-164" target="oPhNYsJZ0r9YiffQCt__-216">
          <mxGeometry width="50" height="50" relative="1" as="geometry">
            <mxPoint x="582" y="390" as="sourcePoint" />
            <mxPoint x="435" y="927" as="targetPoint" />
            <Array as="points">
              <mxPoint x="403" y="893" />
            </Array>
          </mxGeometry>
        </mxCell>
        <mxCell id="oPhNYsJZ0r9YiffQCt__-229" value="" style="endArrow=classic;html=1;rounded=0;strokeColor=#A8201A;fontColor=#143642;fillColor=#FAE5C7;exitX=0;exitY=1;exitDx=0;exitDy=0;entryX=0.5;entryY=0;entryDx=0;entryDy=0;" edge="1" parent="1" source="oPhNYsJZ0r9YiffQCt__-164" target="oPhNYsJZ0r9YiffQCt__-214">
          <mxGeometry width="50" height="50" relative="1" as="geometry">
            <mxPoint x="582" y="390" as="sourcePoint" />
            <mxPoint x="632" y="340" as="targetPoint" />
          </mxGeometry>
        </mxCell>
        <mxCell id="oPhNYsJZ0r9YiffQCt__-230" value="" style="endArrow=classic;html=1;rounded=0;strokeColor=#A8201A;fontColor=#143642;fillColor=#FAE5C7;exitX=0;exitY=1;exitDx=0;exitDy=0;entryX=1;entryY=0;entryDx=0;entryDy=0;" edge="1" parent="1" source="oPhNYsJZ0r9YiffQCt__-164" target="oPhNYsJZ0r9YiffQCt__-215">
          <mxGeometry width="50" height="50" relative="1" as="geometry">
            <mxPoint x="176" y="774" as="sourcePoint" />
            <mxPoint x="226" y="724" as="targetPoint" />
          </mxGeometry>
        </mxCell>
        <mxCell id="oPhNYsJZ0r9YiffQCt__-231" value="" style="curved=1;endArrow=classic;html=1;rounded=0;strokeColor=#A8201A;fontColor=#143642;fillColor=#FAE5C7;exitX=0;exitY=1;exitDx=0;exitDy=0;entryX=1;entryY=1;entryDx=0;entryDy=0;" edge="1" parent="1" source="oPhNYsJZ0r9YiffQCt__-163" target="oPhNYsJZ0r9YiffQCt__-213">
          <mxGeometry width="50" height="50" relative="1" as="geometry">
            <mxPoint x="361" y="853" as="sourcePoint" />
            <mxPoint x="411" y="803" as="targetPoint" />
            <Array as="points">
              <mxPoint x="418" y="937" />
            </Array>
          </mxGeometry>
        </mxCell>
        <mxCell id="oPhNYsJZ0r9YiffQCt__-232" value="" style="curved=1;endArrow=classic;html=1;rounded=0;strokeColor=#A8201A;fontColor=#143642;fillColor=#FAE5C7;exitX=0;exitY=1;exitDx=0;exitDy=0;entryX=0;entryY=0.5;entryDx=0;entryDy=0;" edge="1" parent="1" source="oPhNYsJZ0r9YiffQCt__-163" target="oPhNYsJZ0r9YiffQCt__-212">
          <mxGeometry width="50" height="50" relative="1" as="geometry">
            <mxPoint x="582" y="390" as="sourcePoint" />
            <mxPoint x="632" y="340" as="targetPoint" />
            <Array as="points">
              <mxPoint x="320" y="842" />
              <mxPoint x="268" y="887" />
              <mxPoint x="253" y="942" />
            </Array>
          </mxGeometry>
        </mxCell>
        <mxCell id="oPhNYsJZ0r9YiffQCt__-233" value="" style="endArrow=classic;html=1;rounded=0;strokeColor=#A8201A;fontColor=#143642;fillColor=#FAE5C7;exitX=0;exitY=1;exitDx=0;exitDy=0;entryX=1;entryY=0;entryDx=0;entryDy=0;" edge="1" parent="1" source="oPhNYsJZ0r9YiffQCt__-163" target="oPhNYsJZ0r9YiffQCt__-210">
          <mxGeometry width="50" height="50" relative="1" as="geometry">
            <mxPoint x="319" y="804" as="sourcePoint" />
            <mxPoint x="369" y="754" as="targetPoint" />
          </mxGeometry>
        </mxCell>
        <mxCell id="oPhNYsJZ0r9YiffQCt__-234" value="" style="endArrow=classic;html=1;rounded=0;strokeColor=#A8201A;fontColor=#143642;fillColor=#FAE5C7;exitX=0;exitY=1;exitDx=0;exitDy=0;entryX=1;entryY=0;entryDx=0;entryDy=0;" edge="1" parent="1" source="oPhNYsJZ0r9YiffQCt__-163" target="oPhNYsJZ0r9YiffQCt__-211">
          <mxGeometry width="50" height="50" relative="1" as="geometry">
            <mxPoint x="171" y="819" as="sourcePoint" />
            <mxPoint x="221" y="769" as="targetPoint" />
          </mxGeometry>
        </mxCell>
        <mxCell id="oPhNYsJZ0r9YiffQCt__-235" value="" style="endArrow=classic;html=1;rounded=0;strokeColor=#A8201A;fontColor=#143642;fillColor=#FAE5C7;exitX=0.5;exitY=1;exitDx=0;exitDy=0;entryX=0;entryY=0;entryDx=0;entryDy=0;" edge="1" parent="1" source="oPhNYsJZ0r9YiffQCt__-165" target="oPhNYsJZ0r9YiffQCt__-218">
          <mxGeometry width="50" height="50" relative="1" as="geometry">
            <mxPoint x="699" y="799" as="sourcePoint" />
            <mxPoint x="749" y="749" as="targetPoint" />
          </mxGeometry>
        </mxCell>
        <mxCell id="oPhNYsJZ0r9YiffQCt__-236" value="" style="endArrow=classic;html=1;rounded=0;strokeColor=#A8201A;fontColor=#143642;fillColor=#FAE5C7;exitX=0.5;exitY=1;exitDx=0;exitDy=0;entryX=0.5;entryY=0;entryDx=0;entryDy=0;" edge="1" parent="1" source="oPhNYsJZ0r9YiffQCt__-165" target="oPhNYsJZ0r9YiffQCt__-219">
          <mxGeometry width="50" height="50" relative="1" as="geometry">
            <mxPoint x="726" y="788" as="sourcePoint" />
            <mxPoint x="776" y="738" as="targetPoint" />
          </mxGeometry>
        </mxCell>
        <mxCell id="oPhNYsJZ0r9YiffQCt__-237" value="" style="curved=1;endArrow=classic;html=1;rounded=0;strokeColor=#A8201A;fontColor=#143642;fillColor=#FAE5C7;exitX=0.5;exitY=1;exitDx=0;exitDy=0;entryX=0.5;entryY=1;entryDx=0;entryDy=0;" edge="1" parent="1" source="oPhNYsJZ0r9YiffQCt__-165" target="oPhNYsJZ0r9YiffQCt__-220">
          <mxGeometry width="50" height="50" relative="1" as="geometry">
            <mxPoint x="538" y="906" as="sourcePoint" />
            <mxPoint x="588" y="856" as="targetPoint" />
            <Array as="points">
              <mxPoint x="563" y="888" />
            </Array>
          </mxGeometry>
        </mxCell>
        <mxCell id="oPhNYsJZ0r9YiffQCt__-238" value="" style="curved=1;endArrow=classic;html=1;rounded=0;strokeColor=#A8201A;fontColor=#143642;fillColor=#FAE5C7;exitX=0.5;exitY=1;exitDx=0;exitDy=0;entryX=1;entryY=0;entryDx=0;entryDy=0;" edge="1" parent="1" source="oPhNYsJZ0r9YiffQCt__-165" target="oPhNYsJZ0r9YiffQCt__-221">
          <mxGeometry width="50" height="50" relative="1" as="geometry">
            <mxPoint x="726" y="883" as="sourcePoint" />
            <mxPoint x="776" y="833" as="targetPoint" />
            <Array as="points">
              <mxPoint x="665" y="850" />
              <mxPoint x="702" y="897" />
            </Array>
          </mxGeometry>
        </mxCell>
        <mxCell id="oPhNYsJZ0r9YiffQCt__-239" value="" style="curved=1;endArrow=classic;html=1;rounded=0;strokeColor=#A8201A;fontColor=#143642;fillColor=#FAE5C7;exitX=1;exitY=1;exitDx=0;exitDy=0;entryX=0;entryY=0.5;entryDx=0;entryDy=0;" edge="1" parent="1" source="oPhNYsJZ0r9YiffQCt__-166" target="oPhNYsJZ0r9YiffQCt__-224">
          <mxGeometry width="50" height="50" relative="1" as="geometry">
            <mxPoint x="749" y="786" as="sourcePoint" />
            <mxPoint x="799" y="736" as="targetPoint" />
            <Array as="points">
              <mxPoint x="735" y="938" />
            </Array>
          </mxGeometry>
        </mxCell>
        <mxCell id="oPhNYsJZ0r9YiffQCt__-240" value="" style="curved=1;endArrow=classic;html=1;rounded=0;strokeColor=#A8201A;fontColor=#143642;fillColor=#FAE5C7;exitX=1;exitY=1;exitDx=0;exitDy=0;entryX=1;entryY=0.5;entryDx=0;entryDy=0;" edge="1" parent="1" source="oPhNYsJZ0r9YiffQCt__-166" target="oPhNYsJZ0r9YiffQCt__-225">
          <mxGeometry width="50" height="50" relative="1" as="geometry">
            <mxPoint x="699" y="789" as="sourcePoint" />
            <mxPoint x="749" y="739" as="targetPoint" />
            <Array as="points">
              <mxPoint x="748" y="845" />
              <mxPoint x="814" y="883" />
              <mxPoint x="838" y="927" />
            </Array>
          </mxGeometry>
        </mxCell>
        <mxCell id="oPhNYsJZ0r9YiffQCt__-241" value="" style="endArrow=classic;html=1;rounded=0;strokeColor=#A8201A;fontColor=#143642;fillColor=#FAE5C7;exitX=1;exitY=1;exitDx=0;exitDy=0;entryX=0;entryY=0;entryDx=0;entryDy=0;" edge="1" parent="1" source="oPhNYsJZ0r9YiffQCt__-166" target="oPhNYsJZ0r9YiffQCt__-222">
          <mxGeometry width="50" height="50" relative="1" as="geometry">
            <mxPoint x="859" y="829" as="sourcePoint" />
            <mxPoint x="909" y="779" as="targetPoint" />
          </mxGeometry>
        </mxCell>
        <mxCell id="oPhNYsJZ0r9YiffQCt__-242" value="" style="endArrow=classic;html=1;rounded=0;strokeColor=#A8201A;fontColor=#143642;fillColor=#FAE5C7;exitX=1;exitY=1;exitDx=0;exitDy=0;entryX=0;entryY=0;entryDx=0;entryDy=0;" edge="1" parent="1" source="oPhNYsJZ0r9YiffQCt__-166" target="oPhNYsJZ0r9YiffQCt__-223">
          <mxGeometry width="50" height="50" relative="1" as="geometry">
            <mxPoint x="849" y="814" as="sourcePoint" />
            <mxPoint x="899" y="764" as="targetPoint" />
          </mxGeometry>
        </mxCell>
      </root>
    </mxGraphModel>
  </diagram>
</mxfile>
